<?xml version="1.0" ?>
<svg baseProfile="full" height="600px" version="1.1" viewBox="8.27806533050537 3.193189842224121 6.64163850402832 13.74473908996582" width="290px" xmlns="http://www.w3.org/2000/svg" xmlns:ev="http://www.w3.org/2001/xml-events" xmlns:xlink="http://www.w3.org/1999/xlink">
	<defs/>
	<path d="M 12.204727172851562,9.175491333007812 L 12.204727172851562,9.175491333007812 L 12.155563354492188,8.675491333007812 L 12.106399536132812,8.175491333007812 L 12.058914184570312,7.6754913330078125 L 12.02484130859375,7.1754913330078125 L 12.1864013671875,6.6754913330078125 L 12.460311889648438,6.18951416015625 L 12.76104736328125,5.7402801513671875 L 13.102035522460938,5.3277740478515625 L 13.443023681640625,4.93603515625 L 13.25299072265625,4.7231903076171875 L 12.753005981445312,4.540679931640625 L 12.253021240234375,4.3948974609375 L 11.753036499023438,4.343353271484375 L 11.2530517578125,4.5226593017578125 L 10.836639404296875,4.848907470703125 L 10.443695068359375,5.2134857177734375 L 10.0557861328125,5.5892486572265625 L 9.758438110351562,6.028900146484375 L 9.513076782226562,6.478118896484375 L 9.319686889648438,6.952911376953125 L 9.1380615234375,7.4372711181640625 L 9.005050659179688,7.9264373779296875 L 8.8770751953125,8.418792724609375 L 8.8363037109375,8.912734985351562 L 8.865371704101562,9.40667724609375 L 8.917922973632812,9.900619506835938 L 8.975509643554688,10.394561767578125 L 9.058258056640625,10.886917114257812 L 9.159439086914062,11.380859375 L 9.2606201171875,11.874801635742188 L 9.361801147460938,12.368743896484375 L 9.528396606445312,12.862686157226562 L 9.864349365234375,13.283172607421875 L 10.212051391601562,13.682891845703125 L 10.561416625976562,14.082611083984375 L 10.910781860351562,14.482330322265625 L 11.260147094726562,14.882049560546875 L 11.609512329101562,15.281768798828125 L 12.072921752929688,15.507400512695312 L 12.5396728515625,15.709075927734375 L 13.019851684570312,15.787765502929688 L 13.50506591796875,15.779342651367188 L 13.980224609375,15.5728759765625 L 14.361465454101562,15.206680297851562 L 14.303924560546875,14.71112060546875 L 14.035079956054688,14.22674560546875 L 13.798095703125,13.737579345703125 L 13.561111450195312,13.2484130859375 L 13.319107055664062,12.760833740234375 L 13.021759033203125,12.316390991210938 L 12.722732543945312,11.87353515625 L 12.368362426757812,11.457839965820312 L 12.05926513671875,11.034164428710938 L 11.9832763671875,10.534164428710938 L 12.377944946289062,10.182342529296875 L 12.32208251953125,10.267410278320312 L 12.259506225585938,10.14080810546875 L 12.259506225585938,10.017379760742188 L 12.286911010742188,9.80133056640625 L 12.281356811523438,9.625198364257812 L 12.281356811523438,9.506576538085938 L 12.218780517578125,9.41668701171875 L 12.2115478515625,9.29486083984375 M 11.703338623046875,6.9921417236328125 L 11.703338623046875,6.9921417236328125 L 11.203353881835938,6.92462158203125 L 10.763458251953125,7.2476806640625 L 10.456039428710938,7.6953125 L 10.234161376953125,8.1812744140625 L 10.472869873046875,8.668838500976562 L 10.954727172851562,8.798629760742188 L 11.448318481445312,8.878921508789062 L 11.941909790039062,8.750717163085938 L 12.048126220703125,8.7830810546875 M 11.862106323242188,10.781387329101562 L 11.862106323242188,10.781387329101562 L 11.418869018554688,11.070907592773438 L 10.972274780273438,11.35882568359375 L 10.535736083984375,11.688262939453125 L 10.588287353515625,12.188247680664062 L 10.961135864257812,12.573593139648438 L 11.419509887695312,12.808807373046875 L 11.916458129882812,12.746078491210938 L 12.378189086914062,12.4932861328125 L 12.714141845703125,12.07598876953125 L 12.746566772460938,11.979721069335938 M 12.1016845703125,9.225006103515625 L 12.1016845703125,9.225006103515625 L 11.601699829101562,9.216583251953125 L 11.101715087890625,9.26971435546875 L 10.624923706054688,9.5177001953125 L 10.5992431640625,10.017684936523438 L 10.973770141601562,10.414215087890625 L 11.438858032226562,10.598312377929688 L 11.935806274414062,10.494064331054688 L 12.031967163085938,10.521636962890625 M 9.081375122070312,8.056900024414062 L 9.081375122070312,8.056900024414062 L 9.27813720703125,8.405502319335938 L 9.483306884765625,8.74932861328125 L 9.686798095703125,9.094741821289062 L 9.739349365234375,9.488067626953125 L 9.616409301757812,9.942092895507812 L 9.436447143554688,10.4344482421875 L 9.276611328125,10.926803588867188 L 9.116775512695312,11.419158935546875 L 9.155914306640625,11.2813720703125 M 9.228591918945312,11.369644165039062 L 9.228591918945312,11.369644165039062 L 9.62158203125,11.723037719726562 L 9.95587158203125,12.165878295898438" fill="none" stroke="#000000" stroke-width="0.011444412231445314"/>
</svg>
