<?xml version="1.0" ?>
<svg baseProfile="full" height="518px" version="1.1" viewBox="8.03420686340332 5.407357498168945 10.937537200927734 9.426221282958984" width="600px" xmlns="http://www.w3.org/2000/svg" xmlns:ev="http://www.w3.org/2001/xml-events" xmlns:xlink="http://www.w3.org/1999/xlink">
	<defs/>
	<path d="M 11.024734497070312,6.9185638427734375 L 11.024734497070312,6.9185638427734375 L 10.913528442382812,6.9828643798828125 L 10.503829956054688,7.3362579345703125 L 10.223251342773438,7.7854766845703125 L 10.0416259765625,8.27783203125 L 9.93377685546875,8.777816772460938 L 9.962844848632812,9.277801513671875 L 10.065704345703125,9.777786254882812 L 10.166885375976562,10.27777099609375 L 10.26806640625,10.777755737304688 L 10.374282836914062,11.277740478515625 L 10.535842895507812,11.7764892578125 L 10.700759887695312,12.275238037109375 L 10.931060791015625,12.761199951171875 L 11.204971313476562,13.216827392578125 L 11.55267333984375,13.61175537109375 L 11.404586791992188,13.703216552734375 L 11.291702270507812,13.72760009765625 L 10.851806640625,14.044265747070312 M 9.232177734375,10.966812133789062 L 9.232177734375,10.966812133789062 L 9.32330322265625,10.466812133789062 L 9.41107177734375,9.966812133789062 L 9.355209350585938,9.466812133789062 L 9.411117553710938,8.966812133789062 L 9.467025756835938,8.466812133789062 M 9.37762451171875,8.397705078125 L 9.37762451171875,8.397705078125 L 8.949462890625,8.082626342773438 L 9.3826904296875,7.7755279541015625 L 9.849441528320312,7.559478759765625 L 10.326278686523438,7.4296722412109375 L 10.766220092773438,7.3014678955078125 L 11.266220092773438,7.2627105712890625 L 11.736328125,7.0115203857421875 L 12.236328125,6.999908447265625 L 12.736328125,6.8733062744140625 L 13.21148681640625,6.8616943359375 L 13.33782958984375,6.8796844482421875 L 13.80963134765625,6.7099609375 L 14.30963134765625,6.67120361328125 L 14.80963134765625,6.772247314453125 L 15.30963134765625,6.878082275390625 L 15.80963134765625,6.832916259765625 L 16.21099853515625,6.492279052734375 L 16.699569702148438,6.4790802001953125 L 17.199569702148438,6.5705413818359375 L 17.320892333984375,6.59332275390625 L 17.806106567382812,6.501861572265625 L 17.855316162109375,6.4119720458984375 L 17.796096801757812,6.3300933837890625 L 17.428314208984375,6.21307373046875 L 16.928329467773438,6.1966705322265625 L 16.520309448242188,6.44146728515625 L 16.624847412109375,6.4802093505859375 L 17.056396484375,6.755340576171875 L 17.533233642578125,6.89471435546875 L 17.969818115234375,6.766510009765625 L 18.019027709960938,6.675048828125 L 18.056488037109375,6.5452423095703125" fill="none" stroke="#000000" stroke-width="0.009107025146484374"/>
</svg>
