<?xml version="1.0" ?>
<svg baseProfile="full" height="600px" version="1.1" viewBox="16.426202308654783 4.272817909240723 4.632229782104492 11.270572067260742" width="247px" xmlns="http://www.w3.org/2000/svg" xmlns:ev="http://www.w3.org/2001/xml-events" xmlns:xlink="http://www.w3.org/1999/xlink">
	<defs/>
	<path d="M 17.46917724609375,13.945953369140625 L 17.46917724609375,13.945953369140625 L 17.51910400390625,13.777679443359375 L 17.543487548828125,13.676498413085938 L 17.636550903320312,13.481414794921875 L 17.742385864257812,13.2762451171875 L 17.848220825195312,13.071075439453125 L 17.820632934570312,12.740142822265625 L 17.824249267578125,12.40753173828125 L 17.87738037109375,12.07659912109375 L 17.920928955078125,11.743988037109375 L 17.9644775390625,11.411376953125 L 17.977676391601562,11.0804443359375 L 17.930938720703125,10.741134643554688 L 17.882598876953125,10.400146484375 L 17.827850341796875,10.01556396484375 L 17.75714111328125,9.577301025390625 L 17.688034057617188,9.137359619140625 L 17.617324829101562,8.692398071289062 L 17.546615600585938,8.252456665039062 L 17.405624389648438,7.8108367919921875 L 17.224716186523438,7.3708953857421875 L 17.042205810546875,6.9309539794921875 L 16.859695434570312,6.4910125732421875 L 16.816131591796875,6.0510711669921875 L 17.209457397460938,5.71343994140625 L 17.65069580078125,5.4462432861328125 L 17.972152709960938,5.2159423828125 L 17.972579956054688,5.325469970703125 L 18.09759521484375,5.5070953369140625 L 18.380706787109375,5.5210418701171875 L 18.697372436523438,5.578582763671875 L 18.974105834960938,5.936309814453125 L 19.25244140625,6.2973785400390625 L 19.530776977539062,6.658447265625 L 19.809112548828125,7.0195159912109375 L 20.087448120117188,7.3856201171875 L 20.364181518554688,7.7466888427734375 L 20.599395751953125,8.134597778320312 L 20.668502807617188,8.60467529296875 L 20.663284301757812,9.104660034179688 L 20.584579467773438,9.604644775390625 L 20.51068115234375,10.104629516601562 L 20.382476806640625,10.6046142578125 L 20.257476806640625,11.104598999023438 L 20.132476806640625,11.604583740234375 L 20.005874633789062,12.104568481445312 L 19.858505249023438,12.60455322265625 L 19.675994873046875,13.104537963867188 L 19.493484497070312,13.604522705078125 L 19.315765380859375,14.104507446289062 L 19.102920532226562,14.552780151367188 L 18.864501953125,14.600265502929688 L 18.651657104492188,14.405181884765625 L 18.384490966796875,14.171524047851562 L 17.922470092773438,14.0267333984375 L 17.457244873046875,13.895355224609375 L 17.146957397460938,13.769012451171875" fill="none" stroke="#000000" stroke-width="0.009384323120117187"/>
</svg>
