<?xml version="1.0" ?>
<svg baseProfile="full" height="454px" version="1.1" viewBox="5.4646453933715815 2.913815315246582 19.978775009155274 15.097586044311523" width="600px" xmlns="http://www.w3.org/2000/svg" xmlns:ev="http://www.w3.org/2001/xml-events" xmlns:xlink="http://www.w3.org/1999/xlink">
	<defs/>
	<path d="M 21.845138549804688,13.724945068359375 L 21.845138549804688,13.724945068359375 L 22.125762939453125,13.293258666992188 L 21.8753662109375,12.863174438476562 L 21.437149047851562,12.610382080078125 L 20.993911743164062,12.35919189453125 L 20.557373046875,12.092025756835938 L 20.169464111328125,11.775344848632812 L 19.744659423828125,11.490615844726562 L 19.244674682617188,11.588470458984375 L 18.74468994140625,11.734237670898438 L 18.244705200195312,11.92791748046875 L 17.75115966796875,12.159927368164062 L 17.440383911132812,12.609146118164062 L 17.335891723632812,13.109130859375 L 17.291763305664062,13.609115600585938 L 17.266082763671875,14.109100341796875 L 17.316970825195312,14.609085083007812 L 17.481887817382812,15.10906982421875 L 17.668594360351562,15.609054565429688 L 17.965988159179688,16.055099487304688 L 18.345550537109375,16.432464599609375 L 18.803924560546875,16.672454833984375 L 19.292495727539062,16.746337890625 L 19.792495727539062,16.627716064453125 L 20.135162353515625,16.250335693359375 L 20.415786743164062,15.818649291992188 L 20.689697265625,15.378982543945312 L 21.129638671875,15.126190185546875 L 21.569580078125,14.875 L 21.915603637695312,14.502426147460938 L 22.155990600585938,14.043609619140625 L 22.096771240234375,13.950546264648438 L 21.802780151367188,13.51568603515625 M 16.516067504882812,10.717758178710938 L 16.516067504882812,10.717758178710938 L 16.016082763671875,10.642257690429688 L 15.516098022460938,10.561965942382812 L 15.01611328125,10.483261108398438 L 14.516128540039062,10.404556274414062 L 14.016143798828125,10.360992431640625 L 13.516159057617188,10.322235107421875 L 13.03936767578125,10.312210083007812 M 15.608840942382812,4.4532470703125 L 15.608840942382812,4.4532470703125 L 15.108856201171875,4.602203369140625 L 14.608871459960938,4.7703399658203125 L 14.10888671875,4.9512481689453125 L 13.608901977539062,5.1321563720703125 L 13.108917236328125,5.3513946533203125 L 12.640518188476562,5.629730224609375 L 12.172119140625,5.912841796875 L 11.710433959960938,6.208740234375 L 11.283950805664062,6.5397796630859375 L 10.88262939453125,6.9139404296875 L 10.5450439453125,7.356781005859375 L 10.276199340820312,7.8251800537109375 L 10.091217041015625,8.32232666015625 L 9.919647216796875,8.822311401367188 L 9.831924438476562,9.322296142578125 L 9.749221801757812,9.822280883789062 L 9.666519165039062,10.322265625 L 9.63916015625,10.822250366210938 L 9.690048217773438,11.322235107421875 L 9.7711181640625,11.822219848632812 L 9.895782470703125,12.32220458984375 L 10.064056396484375,12.822189331054688 L 10.327911376953125,13.288986206054688 L 10.606857299804688,13.741409301757812 L 10.91094970703125,14.189041137695312 L 11.261993408203125,14.5855712890625 L 11.706954956054688,14.860702514648438 L 12.180435180664062,15.041610717773438 L 12.655593872070312,15.200164794921875 L 13.130752563476562,15.345932006835938 L 13.607589721679688,15.459762573242188 L 14.084426879882812,15.5751953125 L 14.56292724609375,15.690628051757812 L 15.039764404296875,15.807632446289062 L 15.493118286132812,15.988540649414062 L 15.361785888671875,15.988540649414062 L 14.88165283203125,16.188613891601562 L 14.396484375,16.372711181640625 L 13.9146728515625,16.55999755859375 L 13.414688110351562,16.632293701171875 L 12.914703369140625,16.50408935546875 L 12.414718627929688,16.369491577148438 L 11.91473388671875,16.250869750976562 L 11.414749145507812,16.202529907226562 L 10.914764404296875,16.152587890625 L 10.414779663085938,16.102645874023438 L 9.914794921875,15.931320190429688 L 9.419570922851562,15.710464477539062 L 8.97967529296875,15.408172607421875 L 8.633682250976562,15.032394409179688 L 8.3447265625,14.619888305664062 L 8.106063842773438,14.18182373046875 L 7.919403076171875,13.730987548828125 L 7.7427978515625,13.27056884765625 L 7.566192626953125,12.810150146484375 L 7.38958740234375,12.3497314453125 L 7.219696044921875,11.8829345703125 L 7.1587982177734375,11.393768310546875 L 7.136474609375,10.902999877929688 L 7.13873291015625,10.409042358398438 L 7.1728363037109375,9.916671752929688 L 7.206939697265625,9.424301147460938 L 7.2494354248046875,8.93353271484375 L 7.353973388671875,8.441162109375 L 7.6060943603515625,7.9599761962890625 L 7.94708251953125,7.5570526123046875 L 8.301498413085938,7.1637115478515625 L 8.655914306640625,6.7703704833984375 L 9.010330200195312,6.37542724609375 L 9.36474609375,5.9804840087890625 L 9.719161987304688,5.585540771484375 L 10.112152099609375,5.225738525390625 L 10.612152099609375,5.0432281494140625 L 11.112152099609375,4.9581451416015625 L 11.612152099609375,4.8778533935546875 L 12.112152099609375,4.7927703857421875 L 12.612152099609375,4.706085205078125 L 13.112152099609375,4.5459442138671875 L 13.597366333007812,4.363433837890625 L 14.08258056640625,4.1809234619140625 L 14.58258056640625,4.1788787841796875 L 15.08258056640625,4.2320098876953125 L 15.58258056640625,4.3282623291015625 L 16.08258056640625,4.4293060302734375 M 20.569671630859375,6.6208343505859375 L 20.569671630859375,6.6208343505859375 L 20.433319091796875,6.1208343505859375 L 19.9498291015625,5.93353271484375 L 19.449844360351562,5.93353271484375 L 18.949859619140625,6.0090179443359375 L 18.573699951171875,6.407135009765625 L 18.604446411132812,6.9071197509765625 L 18.802902221679688,7.3914794921875 L 19.117050170898438,7.8215484619140625 L 19.550277709960938,8.103073120117188 L 20.050277709960938,8.183364868164062 L 20.550277709960938,8.0966796875 L 20.78057861328125,7.62347412109375 L 20.66937255859375,7.1327056884765625 M 20.111892700195312,13.762649536132812 L 20.111892700195312,13.762649536132812 L 19.88665771484375,13.2862548828125 L 19.386672973632812,13.236312866210938 L 18.886688232421875,13.2294921875 L 18.411575317382812,13.464706420898438 L 18.347335815429688,13.964691162109375 L 18.627960205078125,14.428298950195312 L 18.962249755859375,14.850387573242188 L 19.4189453125,15.099960327148438 L 19.892425537109375,14.899871826171875 L 20.067398071289062,14.41229248046875 L 20.183670043945312,13.916732788085938 M 13.830123901367188,4.9843292236328125 L 13.830123901367188,4.9843292236328125 L 13.784317016601562,4.4843292236328125 L 13.803329467773438,4.351318359375 M 12.475357055664062,5.5545196533203125 L 12.475357055664062,5.5545196533203125 L 12.149505615234375,5.159576416015625 L 11.71966552734375,4.8764495849609375 L 11.219680786132812,4.71630859375 M 10.712860107421875,6.3787689208984375 L 10.712860107421875,6.3787689208984375 L 10.246139526367188,6.1212005615234375 L 9.7794189453125,5.8636322021484375 L 9.634674072265625,5.8057098388671875 M 9.910995483398438,7.8511505126953125 L 9.910995483398438,7.8511505126953125 L 9.4110107421875,7.7085723876953125 L 8.911026000976562,7.5675811767578125 L 8.411041259765625,7.4250030517578125 L 8.30487060546875,7.3431243896484375 M 9.297149658203125,9.116485595703125 L 9.297149658203125,9.116485595703125 L 8.797164916992188,9.068145751953125 L 8.29718017578125,9.019805908203125 L 7.7971954345703125,8.971466064453125 L 7.297210693359375,8.923126220703125 M 8.967300415039062,10.546371459960938 L 8.967300415039062,10.546371459960938 L 8.467315673828125,10.480453491210938 L 7.9673309326171875,10.414535522460938 L 7.46734619140625,10.348617553710938 L 7.2722930908203125,10.33221435546875 M 9.18609619140625,12.139572143554688 L 9.18609619140625,12.139572143554688 L 8.686111450195312,12.162353515625 L 8.186126708984375,12.292144775390625 L 7.7093353271484375,12.522552490234375 L 7.272796630859375,12.844009399414062 M 10.152984619140625,13.806640625 L 10.152984619140625,13.806640625 L 9.83551025390625,14.24468994140625 L 9.516357421875,14.674758911132812 L 9.188827514648438,15.08245849609375 L 9.069229125976562,15.407119750976562 M 11.436050415039062,15.345947265625 L 11.436050415039062,15.345947265625 L 11.212493896484375,15.828720092773438 L 10.993972778320312,16.311492919921875 M 13.169815063476562,15.997894287109375 L 13.169815063476562,15.997894287109375 L 13.230758666992188,15.497894287109375 L 13.326919555664062,15.454330444335938 L 13.826919555664062,15.442718505859375 L 14.326919555664062,15.442718505859375 L 14.826919555664062,15.442718505859375 L 15.326919555664062,15.442718505859375 L 15.212356567382812,15.397552490234375 L 14.712371826171875,15.344406127929688 L 14.572662353515625,15.292861938476562 L 14.072677612304688,15.366744995117188 L 13.78204345703125,15.815963745117188 M 22.20849609375,11.647552490234375 L 22.20849609375,11.647552490234375 L 22.685333251953125,11.465042114257812 L 23.147064208984375,11.376754760742188 M 22.40234375,12.004852294921875 L 22.40234375,12.004852294921875 L 22.90234375,11.919769287109375 L 23.40234375,11.834686279296875 M 22.62725830078125,12.532760620117188 L 22.62725830078125,12.532760620117188 L 23.12725830078125,12.568328857421875 L 23.62725830078125,12.602294921875 M 22.70172119140625,13.146591186523438 L 22.70172119140625,13.146591186523438 L 23.20172119140625,13.209304809570312 L 23.70172119140625,13.2088623046875 M 22.771591186523438,13.724288940429688 L 22.771591186523438,13.724288940429688 L 23.271591186523438,13.723846435546875 L 23.771591186523438,13.723403930664062 M 23.0472412109375,14.63739013671875 L 23.0472412109375,14.63739013671875 L 23.5472412109375,14.636947631835938 L 23.732269287109375,14.785903930664062 M 22.783782958984375,15.503875732421875 L 22.783782958984375,15.503875732421875 L 23.159988403320312,15.881240844726562 M 22.266586303710938,15.996551513671875 L 22.266586303710938,15.996551513671875 L 22.6478271484375,16.329193115234375 L 23.0491943359375,16.63787841796875 M 21.736923217773438,16.32244873046875 L 21.736923217773438,16.32244873046875 L 21.771026611328125,16.420303344726562 L 22.164016723632812,16.653915405273438 M 22.823699951171875,8.924545288085938 L 22.823699951171875,8.924545288085938 L 23.323699951171875,9.051132202148438 M 23.013824462890625,8.323532104492188 L 23.013824462890625,8.323532104492188 L 22.513839721679688,8.141021728515625 M 22.98089599609375,7.3917999267578125 L 22.98089599609375,7.3917999267578125 L 22.535980224609375,7.1374053955078125 M 22.872512817382812,6.754058837890625 L 22.872512817382812,6.754058837890625 L 22.372528076171875,6.678558349609375 M 22.625213623046875,5.9664306640625 L 22.625213623046875,5.9664306640625 L 22.150100708007812,5.878143310546875 M 22.460128784179688,5.136932373046875 L 22.460128784179688,5.136932373046875 L 22.345565795898438,5.174102783203125 M 22.309814453125,5.32305908203125 L 22.309814453125,5.32305908203125 L 22.20867919921875,5.27789306640625 L 22.224349975585938,5.407684326171875 L 22.111465454101562,5.3577423095703125 L 22.057281494140625,5.503509521484375 L 21.94439697265625,5.4503631591796875 M 22.79608154296875,4.7798309326171875 L 22.79608154296875,4.7798309326171875 L 22.319290161132812,4.9607391357421875 L 21.842498779296875,5.1416473388671875 M 21.844757080078125,5.2985992431640625 L 21.844757080078125,5.2985992431640625 L 21.721817016601562,5.798583984375 L 21.598876953125,6.2985687255859375 L 21.2059326171875,6.6312103271484375 L 20.729141235351562,6.8137054443359375 L 20.240615844726562,6.964263916015625 L 19.752090454101562,7.1148223876953125 L 19.252105712890625,7.21746826171875 L 18.752120971679688,7.281768798828125 L 18.25213623046875,7.3460693359375 L 18.75213623046875,7.1763458251953125 L 19.25213623046875,7.006622314453125 L 19.465682983398438,7.0693359375 L 19.356155395507812,7.0693359375 L 18.879364013671875,7.2630157470703125 L 19.260604858398438,7.6595458984375 L 19.090713500976562,7.16717529296875 L 19.092971801757812,7.6671600341796875 L 19.541290283203125,7.4351348876953125 L 19.041305541992188,7.3835906982421875 L 19.211257934570312,7.883575439453125 L 19.605926513671875,7.5732879638671875 L 19.494720458984375,7.5409088134765625 L 18.994735717773438,7.715423583984375 L 18.4947509765625,7.888336181640625 L 17.994766235351562,8.07403564453125 L 17.494781494140625,8.270904541015625 L 16.994796752929688,8.4677734375 L 16.49481201171875,8.642288208007812 L 16.2142333984375,8.18505859375 L 16.186874389648438,7.68505859375 L 15.829147338867188,7.301300048828125 L 15.32916259765625,7.2816925048828125 L 15.12237548828125,7.7740478515625 L 15.569015502929688,8.038009643554688 L 15.594741821289062,7.542449951171875 L 15.158203125,7.2736968994140625 L 14.788742065429688,7.69097900390625 L 15.09619140625,8.133819580078125 L 15.505935668945312,8.45367431640625 L 15.545074462890625,8.554718017578125 L 15.60601806640625,9.002349853515625 L 15.6837158203125,9.502334594726562 L 15.815093994140625,10.0023193359375 L 16.22149658203125,10.328567504882812" fill="none" stroke="#000000" stroke-width="0.01663511657714844"/>
</svg>
