<?xml version="1.0" ?>
<svg baseProfile="full" height="600px" version="1.1" viewBox="10.65968490600586 6.751989898681641 3.9842648315429687 7.938372497558594" width="302px" xmlns="http://www.w3.org/2000/svg" xmlns:ev="http://www.w3.org/2001/xml-events" xmlns:xlink="http://www.w3.org/1999/xlink">
	<defs/>
	<path d="M 13.975204467773438,7.669647216796875 L 13.975204467773438,7.669647216796875 L 13.863998413085938,7.7387542724609375 L 13.749435424804688,7.8861236572265625 L 13.634872436523438,8.11334228515625 L 13.518630981445312,8.358139038085938 L 13.402389526367188,8.606124877929688 L 13.279449462890625,8.92279052734375 L 13.143096923828125,9.241043090820312 L 13.006744384765625,9.631179809570312 L 12.883804321289062,10.030899047851562 L 12.775955200195312,10.505691528320312 L 12.68487548828125,10.977279663085938 L 12.770980834960938,11.448867797851562 L 12.882217407226562,11.936431884765625 L 13.037063598632812,12.433578491210938 L 13.191909790039062,12.932327270507812 L 13.39874267578125,13.431076049804688 L 13.665939331054688,13.835586547851562 L 13.539642333984375,13.835586547851562 L 13.039657592773438,14.026077270507812 L 12.5396728515625,14.003280639648438 L 12.039688110351562,13.9022216796875 L 11.539703369140625,13.702133178710938 L 11.170242309570312,13.3359375 L 11.099288940429688,12.846771240234375 L 11.093734741210938,12.346771240234375 L 11.1295166015625,11.846771240234375 L 11.165298461914062,11.346771240234375 L 11.196044921875,10.846771240234375 L 11.226791381835938,10.346771240234375 L 11.252517700195312,9.846771240234375 L 11.252517700195312,9.346771240234375 L 11.252517700195312,8.846771240234375 L 11.476119995117188,8.383148193359375 L 11.771835327148438,8.010574340820312 L 12.151397705078125,7.757781982421875 L 12.552764892578125,7.559295654296875 L 12.9876708984375,7.4390716552734375 L 13.429290771484375,7.4162750244140625 L 13.869232177734375,7.56683349609375 L 14.309173583984375,7.78607177734375 M 11.341903686523438,10.038238525390625 L 11.341903686523438,10.038238525390625 L 11.4481201171875,10.115325927734375 L 11.529190063476562,10.3968505859375 L 11.449844360351562,10.707122802734375 L 11.5325927734375,10.77142333984375 L 11.6656494140625,10.890029907226562 L 11.636627197265625,11.216278076171875 L 11.461700439453125,11.6112060546875 L 11.251556396484375,12.004531860351562 L 10.994461059570312,12.346755981445312 M 12.698333740234375,10.112030029296875 L 12.698333740234375,10.112030029296875 L 12.327194213867188,10.042922973632812 L 12.327194213867188,10.14556884765625 L 12.327194213867188,10.645553588867188 L 12.435089111328125,10.637130737304688 L 12.74755859375,10.661514282226562 M 12.312744140625,10.708984375 L 12.312744140625,10.708984375 L 12.290420532226562,11.208969116210938 L 12.268096923828125,11.708953857421875 L 12.300521850585938,12.1038818359375 L 12.337982177734375,12.010818481445312 L 12.432464599609375,11.805953979492188 L 12.580596923828125,11.58990478515625 L 12.728729248046875,11.423355102539062 L 12.806427001953125,11.341476440429688 M 12.845565795898438,11.237228393554688 L 12.845565795898438,11.237228393554688 L 13.05743408203125,10.751251220703125 L 13.274337768554688,10.265274047851562 L 13.48956298828125,9.780899047851562 L 13.704788208007812,9.294921875" fill="none" stroke="#000000" stroke-width="0.00660980224609375"/>
</svg>
