<?xml version="1.0" ?>
<svg baseProfile="full" height="581px" version="1.1" viewBox="-5.558925407409668 5.041680366516113 14.647285018920899 14.178113876342774" width="600px" xmlns="http://www.w3.org/2000/svg" xmlns:ev="http://www.w3.org/2001/xml-events" xmlns:xlink="http://www.w3.org/1999/xlink">
	<defs/>
	<path d="M 4.8997802734375,12.266845703125 L 4.8997802734375,12.266845703125 L 4.7702484130859375,12.133224487304688 L 4.610504150390625,11.999603271484375 L 4.3808135986328125,11.933181762695312 L 4.109771728515625,11.92755126953125 L 3.8053436279296875,11.91552734375 L 3.480255126953125,11.817108154296875 L 3.1551666259765625,11.65948486328125 L 2.817352294921875,11.525863647460938 L 2.4795379638671875,11.392242431640625 L 2.136962890625,11.258621215820312 L 1.7943878173828125,11.144195556640625 L 1.440673828125,11.040969848632812 L 1.0869598388671875,10.937744140625 L 0.733245849609375,10.834518432617188 L 0.66729736328125,10.979293823242188 L 0.68084716796875,11.165664672851562 L 0.6037750244140625,11.552047729492188 L 0.526702880859375,11.938430786132812 L 0.42578125,12.324813842773438 L 0.318511962890625,12.711196899414062 L 0.231903076171875,13.097579956054688 L 0.1993408203125,13.483963012695312 L 0.2876129150390625,13.870346069335938 L 0.4426422119140625,13.887115478515625 L 0.7868499755859375,13.969482421875 L 1.029327392578125,13.891860961914062 L 1.2718048095703125,13.785430908203125 L 1.5651397705078125,13.759002685546875 L 1.8584747314453125,13.732574462890625 L 2.14385986328125,13.592544555664062 L 2.43719482421875,13.460525512695312 L 2.746429443359375,13.360504150390625 L 3.077911376953125,13.278076171875 L 3.45709228515625,13.290054321289062 L 3.836273193359375,13.302032470703125 L 4.2059173583984375,13.240402221679688 L 4.4213714599609375,12.8699951171875 L 4.4524078369140625,12.3699951171875 L 4.5931396484375,12.308364868164062" fill="none" stroke="#000000" stroke-width="0.012195907592773439"/>
	<path d="M 6.79205322265625,6.34228515625 L 6.79205322265625,6.34228515625 L 6.7102203369140625,6.475860595703125 L 6.5552520751953125,6.673431396484375 L 6.3048858642578125,6.871002197265625 L 6.0751953125,7.1453857421875 L 5.869354248046875,7.49017333984375 L 5.66351318359375,7.8349609375 L 5.4449462890625,8.17974853515625 L 5.237518310546875,8.53253173828125 L 5.0443878173828125,8.928512573242188 L 4.9084930419921875,9.407699584960938 L 4.8997802734375,9.896484375 L 4.9117431640625,10.385269165039062 L 4.977752685546875,10.874053955078125 L 5.1073455810546875,11.316436767578125 L 5.37841796875,11.626022338867188 L 5.70831298828125,11.783599853515625 L 5.810882568359375,11.661178588867188 L 6.075592041015625,11.506759643554688 L 6.38958740234375,11.438735961914062 L 6.654296875,11.21551513671875 L 6.9778289794921875,10.958709716796875 L 7.3236236572265625,10.71148681640625 L 7.6694183349609375,10.4578857421875 L 7.7640380859375,10.09228515625 L 7.8523101806640625,9.656280517578125 L 7.8626708984375,9.156280517578125 L 7.77764892578125,8.656280517578125 L 7.6290435791015625,8.156280517578125 L 7.4263763427734375,7.656280517578125 L 7.1457977294921875,7.156280517578125 L 6.8652191162109375,6.656280517578125 L 6.71978759765625,6.228271484375 M 6.4099578857421875,8.559356689453125 L 6.4099578857421875,8.559356689453125 L 6.328125,8.875335693359375 L 6.24151611328125,9.191314697265625 L 6.18829345703125,9.507293701171875 L 6.30517578125,9.78167724609375 L 6.4856414794921875,9.840057373046875 L 6.475341796875,9.680831909179688 L 6.372833251953125,9.4000244140625 L 6.3736572265625,9.106414794921875 L 6.4317169189453125,8.81280517578125 L 6.3625946044921875,8.519195556640625 M 6.1189422607421875,12.713394165039062 L 6.1189422607421875,12.713394165039062 L 6.4138641357421875,12.987777709960938 L 6.64044189453125,13.322967529296875 L 6.9290008544921875,13.678955078125 L 7.139678955078125,14.110137939453125 L 7.275634765625,14.560516357421875 L 7.2891845703125,15.039703369140625 L 7.2645721435546875,15.539688110351562 L 7.184326171875,16.0396728515625 L 7.113616943359375,16.539657592773438 L 7.0333709716796875,17.039642333984375 L 6.953125,17.539627075195312 L 6.6995697021484375,18.033203125 L 6.55255126953125,17.949172973632812 L 6.1956634521484375,17.844345092773438 L 6.066131591796875,17.765121459960938 L 5.92706298828125,17.663497924804688 L 5.80389404296875,17.509078979492188 L 5.5773773193359375,17.277862548828125 L 5.4589691162109375,17.171432495117188 L 5.1942901611328125,16.794631958007812 L 5.06475830078125,16.65460205078125 L 5.0878448486328125,16.504974365234375 L 5.0648193359375,16.216171264648438 L 4.9845733642578125,15.91937255859375 L 5.0474090576171875,15.600173950195312 L 5.1499786376953125,15.272964477539062 L 5.171478271484375,14.934555053710938 L 5.1484527587890625,14.562545776367188 L 5.138153076171875,14.185745239257812 L 5.14056396484375,13.80413818359375 L 5.3035430908203125,13.412933349609375 L 5.466522216796875,13.348114013671875 L 5.4927825927734375,13.198486328125 L 5.6430511474609375,12.909683227539062 L 5.77105712890625,12.803253173828125 L 5.770294189453125,12.621627807617188 L 5.90625,12.552001953125 M 5.7919921875,14.870269775390625 L 5.7919921875,14.870269775390625 L 5.735595703125,15.128646850585938 L 5.6887359619140625,15.38702392578125 L 5.8421783447265625,15.639007568359375 L 6.0798797607421875,15.785385131835938 L 6.0966033935546875,15.602157592773438 L 6.067230224609375,15.159759521484375 L 6.0378570556640625,14.717361450195312 L 5.854278564453125,14.3277587890625" fill="none" stroke="#000000" stroke-width="0.012195907592773439"/>
	<path d="M 0.0862579345703125,7.1826324462890625 L 0.0862579345703125,7.1826324462890625 L -0.23565673828125,7.0506134033203125 L -0.633880615234375,6.9185943603515625 L -1.0321044921875,6.7865753173828125 L -1.430328369140625,6.6545562744140625 L -1.83331298828125,6.5897369384765625 L -2.3332977294921875,6.7793121337890625 L -2.833282470703125,6.93048095703125 L -3.3332672119140625,7.0816497802734375 L -3.833251953125,7.1592254638671875 L -4.3332366943359375,7.2176055908203125 L -4.173431396484375,7.3255767822265625 L -3.881683349609375,7.53594970703125 L -3.67578125,7.8087310791015625 L -3.469879150390625,8.081512451171875 L -3.2576141357421875,8.354293823242188 L -3.0358123779296875,8.636672973632812 L -2.8140106201171875,8.919052124023438 L -2.5922088623046875,9.201431274414062 L -2.470550537109375,9.525421142578125 L -2.4442901611328125,9.900604248046875 L -2.4561767578125,10.275787353515625 L -2.455352783203125,10.663772583007812 L -2.443389892578125,11.0517578125 L -2.431427001953125,11.439743041992188 L -2.419464111328125,11.827728271484375 L -2.407501220703125,12.215713500976562 L -2.4352874755859375,12.60369873046875 L -2.4964599609375,12.991683959960938 L -2.597381591796875,13.395660400390625 L -2.752349853515625,13.807647705078125 L -2.8771209716796875,14.2308349609375 L -3.00189208984375,14.654022216796875 L -3.0885009765625,15.072402954101562 L -3.1703338623046875,15.497177124023438 L -3.2362823486328125,15.921951293945312 L -3.0717010498046875,15.895523071289062 L -2.71795654296875,15.880294799804688 L -2.3467254638671875,15.961074829101562 L -1.975494384765625,16.041854858398438 L -1.6042633056640625,16.103424072265625 L -1.2282562255859375,16.158599853515625 L -0.8522491455078125,16.1497802734375 L -0.5589141845703125,16.097763061523438 L -0.67413330078125,15.8553466796875 L -0.843414306640625,15.400146484375 L -0.9220733642578125,14.940139770507812 L -0.9943695068359375,14.480133056640625 L -1.0285186767578125,14.020126342773438 L -1.056304931640625,13.56011962890625 L -1.0840911865234375,13.100112915039062 L -1.1166534423828125,12.640106201171875 L -1.144439697265625,12.180099487304688 L -1.0736541748046875,11.7200927734375 L -0.9615478515625,11.260086059570312 L -0.827178955078125,10.800079345703125 L -0.69281005859375,10.340072631835938 L -0.558441162109375,9.88006591796875 L -0.4177093505859375,9.420059204101562 L -0.2769775390625,8.960052490234375 L -0.142608642578125,8.500045776367188 L -0.0352630615234375,8.0400390625 L 0.054595947265625,7.5704345703125 L 0.1603546142578125,7.420806884765625 L 0.1993408203125,7.2455902099609375 M -0.089813232421875,7.8710174560546875 L -0.089813232421875,7.8710174560546875 L -0.4244384765625,7.790191650390625 L -0.821075439453125,7.7093658447265625 L -1.21771240234375,7.602935791015625 L -1.6079864501953125,7.4965057373046875 L -2.10797119140625,7.684478759765625 L -2.6079559326171875,7.8916473388671875 L -3.107940673828125,8.08441162109375 M -2.9401092529296875,8.769927978515625 L -2.9401092529296875,8.769927978515625 L -2.4798583984375,8.773895263671875 L -2.030731201171875,8.7874755859375 L -1.58160400390625,8.801055908203125 L -1.1277008056640625,8.81463623046875 L -0.673797607421875,8.828216552734375 L -0.3200531005859375,8.841796875 M -0.5885772705078125,9.844894409179688 L -0.5885772705078125,9.844894409179688 L -0.948638916015625,9.920867919921875 L -1.4056854248046875,9.796844482421875 L -1.8531951904296875,9.6024169921875 L -2.21484375,9.479995727539062 L -2.6385040283203125,9.634368896484375 M -2.2878265380859375,10.911849975585938 L -2.2878265380859375,10.911849975585938 L -1.7878265380859375,10.938217163085938 L -1.2878265380859375,11.00299072265625 L -0.7878265380859375,11.07257080078125 M -1.41802978515625,12.148452758789062 L -1.41802978515625,12.148452758789062 L -1.9180145263671875,12.144424438476562 L -2.417999267578125,12.140396118164062 M -2.50531005859375,13.269882202148438 L -2.50531005859375,13.269882202148438 L -2.00531005859375,13.254653930664062 L -1.50531005859375,13.239425659179688 L -1.094329833984375,13.256195068359375 M -1.252349853515625,14.634475708007812 L -1.252349853515625,14.634475708007812 L -1.6616973876953125,14.56805419921875 L -2.155303955078125,14.7208251953125 L -2.6552886962890625,14.868789672851562 L -3.1552734375,14.803970336914062" fill="none" stroke="#000000" stroke-width="0.012195907592773439"/>
</svg>
