<?xml version="1.0" ?>
<svg baseProfile="full" height="401px" version="1.1" viewBox="13.913653198242187 10.518671813964843 5.645227783203125 3.7666572265625002" width="600px" xmlns="http://www.w3.org/2000/svg" xmlns:ev="http://www.w3.org/2001/xml-events" xmlns:xlink="http://www.w3.org/1999/xlink">
	<defs/>
	<path d="M 19.08648681640625,12.266845703125 L 19.08648681640625,12.266845703125 L 18.956954956054688,12.133224487304688 L 18.797210693359375,11.999603271484375 L 18.567520141601562,11.933181762695312 L 18.296478271484375,11.92755126953125 L 17.992050170898438,11.91552734375 L 17.666961669921875,11.817108154296875 L 17.341873168945312,11.65948486328125 L 17.004058837890625,11.525863647460938 L 16.666244506835938,11.392242431640625 L 16.32366943359375,11.258621215820312 L 15.981094360351562,11.144195556640625 L 15.62738037109375,11.040969848632812 L 15.273666381835938,10.937744140625 L 14.919952392578125,10.834518432617188 L 14.85400390625,10.979293823242188 L 14.8675537109375,11.165664672851562 L 14.790481567382812,11.552047729492188 L 14.713409423828125,11.938430786132812 L 14.61248779296875,12.324813842773438 L 14.505218505859375,12.711196899414062 L 14.418609619140625,13.097579956054688 L 14.38604736328125,13.483963012695312 L 14.474319458007812,13.870346069335938 L 14.629348754882812,13.887115478515625 L 14.973556518554688,13.969482421875 L 15.216033935546875,13.891860961914062 L 15.458511352539062,13.785430908203125 L 15.751846313476562,13.759002685546875 L 16.045181274414062,13.732574462890625 L 16.33056640625,13.592544555664062 L 16.6239013671875,13.460525512695312 L 16.933135986328125,13.360504150390625 L 17.264617919921875,13.278076171875 L 17.643798828125,13.290054321289062 L 18.022979736328125,13.302032470703125 L 18.392623901367188,13.240402221679688 L 18.608078002929688,12.8699951171875 L 18.639114379882812,12.3699951171875 L 18.77984619140625,12.308364868164062" fill="none" stroke="#000000" stroke-width="0.004700439453125"/>
</svg>
