<?xml version="1.0" ?>
<svg baseProfile="full" height="600px" version="1.1" viewBox="19.15387841796875 5.041875854492187 3.567273681640625 14.177722900390625" width="151px" xmlns="http://www.w3.org/2000/svg" xmlns:ev="http://www.w3.org/2001/xml-events" xmlns:xlink="http://www.w3.org/1999/xlink">
	<defs/>
	<path d="M 21.348342895507812,6.34228515625 L 21.348342895507812,6.34228515625 L 21.266510009765625,6.475860595703125 L 21.111541748046875,6.673431396484375 L 20.861175537109375,6.871002197265625 L 20.631484985351562,7.1453857421875 L 20.425643920898438,7.49017333984375 L 20.219802856445312,7.8349609375 L 20.001235961914062,8.17974853515625 L 19.793807983398438,8.53253173828125 L 19.600677490234375,8.928512573242188 L 19.46478271484375,9.407699584960938 L 19.456069946289062,9.896484375 L 19.468032836914062,10.385269165039062 L 19.534042358398438,10.874053955078125 L 19.66363525390625,11.316436767578125 L 19.934707641601562,11.626022338867188 L 20.264602661132812,11.783599853515625 L 20.367172241210938,11.661178588867188 L 20.631881713867188,11.506759643554688 L 20.945877075195312,11.438735961914062 L 21.210586547851562,11.21551513671875 L 21.53411865234375,10.958709716796875 L 21.879913330078125,10.71148681640625 L 22.2257080078125,10.4578857421875 L 22.320327758789062,10.09228515625 L 22.408599853515625,9.656280517578125 L 22.418960571289062,9.156280517578125 L 22.333938598632812,8.656280517578125 L 22.185333251953125,8.156280517578125 L 21.982666015625,7.656280517578125 L 21.70208740234375,7.156280517578125 L 21.4215087890625,6.656280517578125 L 21.276077270507812,6.228271484375 M 20.96624755859375,8.559356689453125 L 20.96624755859375,8.559356689453125 L 20.884414672851562,8.875335693359375 L 20.797805786132812,9.191314697265625 L 20.744583129882812,9.507293701171875 L 20.861465454101562,9.78167724609375 L 21.04193115234375,9.840057373046875 L 21.031631469726562,9.680831909179688 L 20.929122924804688,9.4000244140625 L 20.929946899414062,9.106414794921875 L 20.988006591796875,8.81280517578125 L 20.91888427734375,8.519195556640625 M 20.67523193359375,12.713394165039062 L 20.67523193359375,12.713394165039062 L 20.97015380859375,12.987777709960938 L 21.196731567382812,13.322967529296875 L 21.48529052734375,13.678955078125 L 21.695968627929688,14.110137939453125 L 21.831924438476562,14.560516357421875 L 21.845474243164062,15.039703369140625 L 21.82086181640625,15.539688110351562 L 21.740615844726562,16.0396728515625 L 21.669906616210938,16.539657592773438 L 21.58966064453125,17.039642333984375 L 21.509414672851562,17.539627075195312 L 21.255859375,18.033203125 L 21.108840942382812,17.949172973632812 L 20.751953125,17.844345092773438 L 20.622421264648438,17.765121459960938 L 20.483352661132812,17.663497924804688 L 20.360183715820312,17.509078979492188 L 20.1336669921875,17.277862548828125 L 20.0152587890625,17.171432495117188 L 19.750579833984375,16.794631958007812 L 19.621047973632812,16.65460205078125 L 19.644134521484375,16.504974365234375 L 19.621109008789062,16.216171264648438 L 19.540863037109375,15.91937255859375 L 19.60369873046875,15.600173950195312 L 19.706268310546875,15.272964477539062 L 19.727767944335938,14.934555053710938 L 19.704742431640625,14.562545776367188 L 19.694442749023438,14.185745239257812 L 19.696853637695312,13.80413818359375 L 19.859832763671875,13.412933349609375 L 20.022811889648438,13.348114013671875 L 20.049072265625,13.198486328125 L 20.1993408203125,12.909683227539062 L 20.327346801757812,12.803253173828125 L 20.326583862304688,12.621627807617188 L 20.462539672851562,12.552001953125 M 20.348281860351562,14.870269775390625 L 20.348281860351562,14.870269775390625 L 20.291885375976562,15.128646850585938 L 20.245025634765625,15.38702392578125 L 20.398468017578125,15.639007568359375 L 20.63616943359375,15.785385131835938 L 20.65289306640625,15.602157592773438 L 20.623519897460938,15.159759521484375 L 20.594146728515625,14.717361450195312 L 20.410568237304688,14.3277587890625" fill="none" stroke="#000000" stroke-width="0.011804931640625"/>
</svg>
