<?xml version="1.0" ?>
<svg baseProfile="full" height="600px" version="1.1" viewBox="13.145823989868164 7.237131057739258 7.87593930053711 9.110820892333985" width="519px" xmlns="http://www.w3.org/2000/svg" xmlns:ev="http://www.w3.org/2001/xml-events" xmlns:xlink="http://www.w3.org/1999/xlink">
	<defs/>
	<path d="M 15.551528930664062,9.744125366210938 L 15.551528930664062,9.744125366210938 M 16.430862426757812,10.349853515625 L 16.430862426757812,10.349853515625 L 16.3045654296875,10.849838256835938 L 16.143051147460938,11.349822998046875 L 15.84906005859375,11.799041748046875 L 15.355514526367188,11.965576171875 L 14.85552978515625,11.78466796875 L 14.425689697265625,11.466400146484375 L 14.056228637695312,11.066665649414062 L 13.847763061523438,10.5806884765625 L 13.805313110351562,10.0806884765625 L 14.010482788085938,9.599502563476562 L 14.450424194335938,9.325942993164062 L 14.925582885742188,9.138641357421875 L 15.425582885742188,9.051956176757812 L 15.925582885742188,9.12744140625 L 16.40576171875,9.388198852539062 L 16.80377197265625,9.7767333984375 L 17.114578247070312,10.2227783203125 L 17.22247314453125,10.722763061523438 M 17.05328369140625,14.22265625 L 17.05328369140625,14.22265625 L 17.35235595703125,14.671875 L 17.681610107421875,15.116317749023438 L 18.14501953125,15.378677368164062 L 18.633590698242188,15.561172485351562 L 19.133590698242188,15.585556030273438 L 19.591964721679688,15.321578979492188 L 19.887680053710938,14.88671875 L 20.11798095703125,14.408737182617188 L 20.32147216796875,13.922760009765625 L 20.362274169921875,13.422760009765625 L 20.066604614257812,12.96234130859375 L 19.705535888671875,12.546646118164062 L 19.344467163085938,12.130950927734375 L 18.901229858398438,11.83026123046875 L 18.4012451171875,11.892974853515625 L 17.901260375976562,12.04034423828125 L 17.401275634765625,12.265975952148438 L 16.9915771484375,12.646530151367188 L 16.809951782226562,13.145278930664062 L 16.6484375,13.645263671875 M 20.330245971679688,10.30181884765625 L 20.330245971679688,10.30181884765625 L 20.150283813476562,9.80181884765625 L 19.958572387695312,9.30181884765625 L 19.827239990234375,8.80181884765625 L 19.747894287109375,8.30181884765625 L 19.31805419921875,7.9995269775390625 L 18.818069458007812,8.081405639648438 L 18.378173828125,8.414047241210938 L 18.218338012695312,8.914031982421875 L 18.4503173828125,9.409576416015625 L 18.81646728515625,9.810897827148438" fill="none" stroke="#000000" stroke-width="0.007586029052734375"/>
</svg>
