<?xml version="1.0" ?>
<svg baseProfile="full" height="600px" version="1.1" viewBox="8.44901653289795 5.628066215515137 5.448661880493164 11.492204360961914" width="285px" xmlns="http://www.w3.org/2000/svg" xmlns:ev="http://www.w3.org/2001/xml-events" xmlns:xlink="http://www.w3.org/1999/xlink">
	<defs/>
	<path d="M 13.326553344726562,7.1826324462890625 L 13.326553344726562,7.1826324462890625 L 13.004638671875,7.0506134033203125 L 12.606414794921875,6.9185943603515625 L 12.20819091796875,6.7865753173828125 L 11.809967041015625,6.6545562744140625 L 11.406982421875,6.5897369384765625 L 10.906997680664062,6.7793121337890625 L 10.407012939453125,6.93048095703125 L 9.907028198242188,7.0816497802734375 L 9.40704345703125,7.1592254638671875 L 8.907058715820312,7.2176055908203125 L 9.066864013671875,7.3255767822265625 L 9.358612060546875,7.53594970703125 L 9.56451416015625,7.8087310791015625 L 9.770416259765625,8.081512451171875 L 9.982681274414062,8.354293823242188 L 10.204483032226562,8.636672973632812 L 10.426284790039062,8.919052124023438 L 10.648086547851562,9.201431274414062 L 10.769744873046875,9.525421142578125 L 10.796005249023438,9.900604248046875 L 10.78411865234375,10.275787353515625 L 10.784942626953125,10.663772583007812 L 10.796905517578125,11.0517578125 L 10.808868408203125,11.439743041992188 L 10.820831298828125,11.827728271484375 L 10.832794189453125,12.215713500976562 L 10.805007934570312,12.60369873046875 L 10.74383544921875,12.991683959960938 L 10.642913818359375,13.395660400390625 L 10.487945556640625,13.807647705078125 L 10.363174438476562,14.2308349609375 L 10.2384033203125,14.654022216796875 L 10.15179443359375,15.072402954101562 L 10.069961547851562,15.497177124023438 L 10.004013061523438,15.921951293945312 L 10.168594360351562,15.895523071289062 L 10.5223388671875,15.880294799804688 L 10.893569946289062,15.961074829101562 L 11.264801025390625,16.041854858398438 L 11.636032104492188,16.103424072265625 L 12.012039184570312,16.158599853515625 L 12.388046264648438,16.1497802734375 L 12.681381225585938,16.097763061523438 L 12.566162109375,15.8553466796875 L 12.396881103515625,15.400146484375 L 12.318222045898438,14.940139770507812 L 12.245925903320312,14.480133056640625 L 12.211776733398438,14.020126342773438 L 12.183990478515625,13.56011962890625 L 12.156204223632812,13.100112915039062 L 12.123641967773438,12.640106201171875 L 12.095855712890625,12.180099487304688 L 12.166641235351562,11.7200927734375 L 12.27874755859375,11.260086059570312 L 12.413116455078125,10.800079345703125 L 12.5474853515625,10.340072631835938 L 12.681854248046875,9.88006591796875 L 12.822586059570312,9.420059204101562 L 12.96331787109375,8.960052490234375 L 13.097686767578125,8.500045776367188 L 13.205032348632812,8.0400390625 L 13.294891357421875,7.5704345703125 L 13.400650024414062,7.420806884765625 L 13.43963623046875,7.2455902099609375 M 13.150482177734375,7.8710174560546875 L 13.150482177734375,7.8710174560546875 L 12.81585693359375,7.790191650390625 L 12.419219970703125,7.7093658447265625 L 12.0225830078125,7.602935791015625 L 11.632308959960938,7.4965057373046875 L 11.13232421875,7.684478759765625 L 10.632339477539062,7.8916473388671875 L 10.132354736328125,8.08441162109375 M 10.300186157226562,8.769927978515625 L 10.300186157226562,8.769927978515625 L 10.76043701171875,8.773895263671875 L 11.209564208984375,8.7874755859375 L 11.65869140625,8.801055908203125 L 12.112594604492188,8.81463623046875 L 12.566497802734375,8.828216552734375 L 12.920242309570312,8.841796875 M 12.651718139648438,9.844894409179688 L 12.651718139648438,9.844894409179688 L 12.291656494140625,9.920867919921875 L 11.834609985351562,9.796844482421875 L 11.387100219726562,9.6024169921875 L 11.02545166015625,9.479995727539062 L 10.601791381835938,9.634368896484375 M 10.952468872070312,10.911849975585938 L 10.952468872070312,10.911849975585938 L 11.452468872070312,10.938217163085938 L 11.952468872070312,11.00299072265625 L 12.452468872070312,11.07257080078125 M 11.822265625,12.148452758789062 L 11.822265625,12.148452758789062 L 11.322280883789062,12.144424438476562 L 10.822296142578125,12.140396118164062 M 10.7349853515625,13.269882202148438 L 10.7349853515625,13.269882202148438 L 11.2349853515625,13.254653930664062 L 11.7349853515625,13.239425659179688 L 12.145965576171875,13.256195068359375 M 11.987945556640625,14.634475708007812 L 11.987945556640625,14.634475708007812 L 11.578598022460938,14.56805419921875 L 11.084991455078125,14.7208251953125 L 10.585006713867188,14.868789672851562 L 10.08502197265625,14.803970336914062" fill="none" stroke="#000000" stroke-width="0.009568862915039063"/>
</svg>
