<?xml version="1.0" ?>
<svg baseProfile="full" height="600px" version="1.1" viewBox="16.75861848449707 5.100966201782226 3.591024139404297 9.869509246826173" width="219px" xmlns="http://www.w3.org/2000/svg" xmlns:ev="http://www.w3.org/2001/xml-events" xmlns:xlink="http://www.w3.org/1999/xlink">
	<defs/>
	<path d="M 17.761795043945312,8.917617797851562 L 17.761795043945312,8.917617797851562 L 17.811004638671875,9.047409057617188 L 17.876968383789062,9.177200317382812 L 17.986541748046875,9.259078979492188 L 18.116241455078125,9.318603515625 L 18.313003540039062,9.268661499023438 L 18.508087158203125,9.210739135742188 L 18.704849243164062,9.171981811523438 L 18.901611328125,9.112457275390625 L 19.110122680664062,8.985855102539062 L 19.318634033203125,8.83209228515625 L 19.527145385742188,8.6431884765625 L 19.715530395507812,8.428741455078125 L 19.860321044921875,8.185531616210938 L 19.978271484375,7.9327392578125 L 20.039215087890625,7.662384033203125 L 19.949813842773438,7.39202880859375 L 19.784942626953125,7.084930419921875 L 19.610015869140625,6.76666259765625 L 19.435089111328125,6.448394775390625 L 19.25848388671875,6.1029815673828125 L 18.951065063476562,5.926849365234375 L 18.554779052734375,6.0151214599609375 L 18.16015625,6.1417083740234375 L 17.765533447265625,6.273101806640625 L 17.37762451171875,6.4524078369140625 L 17.133941650390625,6.7387237548828125 L 17.061294555664062,6.9819183349609375 L 17.088699340820312,7.19317626953125 L 17.116104125976562,7.4044342041015625 L 17.143508911132812,7.615692138671875 L 17.1776123046875,7.825347900390625 L 17.23687744140625,7.9806976318359375 L 17.301162719726562,8.11688232421875 L 17.3704833984375,8.248275756835938 L 17.443161010742188,8.382858276367188 L 17.500747680664062,8.515853881835938 L 17.560012817382812,8.648849487304688 M 18.797134399414062,8.008209228515625 L 18.797134399414062,8.008209228515625 L 18.920120239257812,7.9183197021484375 L 18.999496459960938,7.8172607421875 L 18.997283935546875,7.6810760498046875 L 18.995071411132812,7.5400848388671875 L 18.99285888671875,7.3975067138671875 L 18.98394775390625,7.2549285888671875 L 18.944839477539062,7.1570587158203125 L 18.855438232421875,7.1118927001953125 L 18.762680053710938,7.150634765625 L 18.646438598632812,7.2117462158203125 L 18.518463134765625,7.25689697265625 L 18.390487670898438,7.3180084228515625 L 18.242401123046875,7.443023681640625 L 18.154678344726562,7.6766357421875 L 18.207229614257812,7.7760772705078125 L 18.264816284179688,7.8579559326171875 L 18.322402954101562,7.9573974609375 L 18.413528442382812,8.004135131835938 L 18.506332397460938,8.060455322265625 L 18.599136352539062,8.116775512695312 M 18.294387817382812,11.508621215820312 L 18.294387817382812,11.508621215820312 L 18.39892578125,11.457077026367188 L 18.505142211914062,11.405532836914062 L 18.597946166992188,11.339614868164062 L 18.689071655273438,11.2720947265625 L 18.783554077148438,11.31243896484375 L 18.876358032226562,11.376739501953125 L 19.004379272460938,11.4410400390625 L 19.202835083007812,11.467025756835938 L 19.41302490234375,11.493011474609375 L 19.623214721679688,11.53656005859375 L 19.833404541015625,11.645584106445312 L 19.92620849609375,11.907943725585938 L 19.9854736328125,12.187881469726562 L 20.017898559570312,12.507736206054688 L 20.046966552734375,12.830795288085938 L 20.011215209960938,13.150650024414062 L 19.849700927734375,13.401824951171875 L 19.723403930664062,13.633834838867188 L 19.608840942382812,13.867446899414062 L 19.437271118164062,13.990859985351562 L 19.257308959960938,14.016845703125 L 19.077346801757812,13.96051025390625 L 18.895721435546875,13.899383544921875 L 18.46588134765625,14.086669921875 L 18.101455688476562,14.14459228515625 L 17.91815185546875,14.014785766601562 L 17.83544921875,13.7188720703125 L 17.786285400390625,13.363861083984375 L 17.71868896484375,13.018447875976562 L 17.651092529296875,12.67303466796875 L 17.620391845703125,12.32281494140625 L 17.67462158203125,11.977401733398438 L 17.782516479492188,11.66552734375 L 17.925628662109375,11.593215942382812 L 18.016754150390625,11.63836669921875 L 18.116256713867188,11.664352416992188 L 18.209060668945312,11.623992919921875 L 18.301864624023438,11.578826904296875 L 18.394668579101562,11.533660888671875 M 18.933670043945312,13.142242431640625 L 18.933670043945312,13.142242431640625 L 19.269622802734375,13.1666259765625 L 19.2735595703125,12.982513427734375 L 19.297607421875,12.538070678710938 L 19.230010986328125,12.457778930664062 L 18.730026245117188,12.482162475585938 L 18.757431030273438,12.60076904296875 L 18.759689331054688,12.701812744140625 L 18.759689331054688,12.84918212890625 L 18.761947631835938,12.9630126953125 L 18.623916625976562,13.43780517578125 L 18.703292846679688,13.354324340820312 L 18.764236450195312,13.23089599609375 L 18.8687744140625,13.206512451171875 M 18.893447875976562,12.826248168945312 L 18.893447875976562,12.826248168945312 L 18.404922485351562,12.608596801757812 L 18.100875854492188,12.191299438476562 L 17.848800659179688,11.72607421875 L 17.88458251953125,11.8494873046875 M 17.87567138671875,11.665374755859375 L 17.87567138671875,11.665374755859375 L 17.98858642578125,11.704116821289062 L 18.4251708984375,12.027175903320312 L 18.44586181640625,12.176132202148438 L 18.513504028320312,12.676116943359375 L 18.62139892578125,12.703689575195312 L 19.12139892578125,12.73126220703125 L 19.1806640625,12.64617919921875 L 19.51495361328125,12.462066650390625 L 19.611114501953125,12.399337768554688 L 19.5401611328125,12.328628540039062" fill="none" stroke="#000000" stroke-width="0.008217742919921875"/>
</svg>
