<?xml version="1.0" ?>
<svg baseProfile="full" height="600px" version="1.1" viewBox="13.484562004089355 6.0119515304565425 5.911872695922852 7.214668106079102" width="492px" xmlns="http://www.w3.org/2000/svg" xmlns:ev="http://www.w3.org/2001/xml-events" xmlns:xlink="http://www.w3.org/1999/xlink">
	<defs/>
	<path d="M 16.871871948242188,6.887664794921875 L 16.871871948242188,6.887664794921875 L 16.37188720703125,6.95196533203125 L 15.99237060546875,6.740692138671875 L 15.929794311523438,6.867279052734375 L 15.774978637695312,7.3672637939453125 L 15.939895629882812,7.86724853515625 L 16.351318359375,7.968292236328125 L 16.821426391601562,8.185928344726562 L 17.28985595703125,8.12640380859375 L 17.679473876953125,7.7602081298828125 L 17.79071044921875,7.2602081298828125 L 17.479934692382812,6.8269500732421875 L 16.98638916015625,6.6156768798828125 L 16.873504638671875,6.6156768798828125 L 16.48895263671875,6.9371337890625 L 16.099365234375,7.3272705078125 L 15.88922119140625,7.8180389404296875 L 15.75286865234375,8.318023681640625 L 15.805419921875,8.56121826171875 M 16.031417846679688,11.0782470703125 L 16.031417846679688,11.0782470703125 L 16.0386962890625,11.578231811523438 L 16.294158935546875,12.051422119140625 L 16.72235107421875,12.35052490234375 L 17.192459106445312,12.525039672851562 L 17.689407348632812,12.622894287109375 L 18.189407348632812,12.51544189453125 L 18.689407348632812,12.33453369140625 L 18.901275634765625,11.853347778320312 L 18.729705810546875,11.354583740234375 L 18.33843994140625,11.023529052734375 L 17.942153930664062,10.710052490234375 L 17.442169189453125,10.65850830078125 L 16.942184448242188,10.733993530273438 L 16.46539306640625,11.010726928710938 L 16.173080444335938,11.456771850585938 M 16.998367309570312,11.932403564453125 L 16.998367309570312,11.932403564453125 L 17.433273315429688,12.21392822265625 L 17.933273315429688,12.1192626953125 L 18.022720336914062,11.6192626953125 L 17.58282470703125,11.352096557617188 L 17.082839965820312,11.558547973632812 L 16.95989990234375,12.04132080078125 M 16.264999389648438,7.5779571533203125 L 16.264999389648438,7.5779571533203125 L 16.605987548828125,7.979278564453125 L 17.105987548828125,8.008438110351562 L 17.25579833984375,7.5084381103515625 L 16.755813598632812,7.369049072265625 L 16.255828857421875,7.47967529296875 M 16.141265869140625,7.464874267578125 L 16.141265869140625,7.464874267578125 L 15.641281127929688,7.6330108642578125 L 15.296981811523438,8.071060180664062 L 15.125411987304688,8.571044921875 L 15.313796997070312,9.071029663085938 L 15.342864990234375,9.172073364257812 L 15.320541381835938,9.67205810546875 L 15.386505126953125,9.765121459960938 L 15.653701782226562,10.024276733398438 L 15.75823974609375,10.04705810546875 L 15.995269775390625,10.13372802734375 L 15.995834350585938,10.015106201171875 L 15.911453247070312,9.9332275390625 L 15.463180541992188,9.805023193359375 L 14.96319580078125,9.7630615234375 L 14.463211059570312,9.9439697265625 L 13.979721069335938,10.17279052734375" fill="none" stroke="#000000" stroke-width="0.006007217407226563"/>
</svg>
