<?xml version="1.0" ?>
<svg baseProfile="full" height="466px" version="1.1" viewBox="0.3869850463867186 -0.6103141479492189 24.774583374023436 19.220628295898436" width="600px" xmlns="http://www.w3.org/2000/svg" xmlns:ev="http://www.w3.org/2001/xml-events" xmlns:xlink="http://www.w3.org/1999/xlink">
	<defs/>
	<path d="M 8.878662109375,5.638824462890625 L 8.878662109375,5.638824462890625 L 9.286361694335938,5.6097564697265625 L 9.786346435546875,5.5169525146484375 L 10.277114868164062,5.2799224853515625 L 10.656082153320312,4.897003173828125 L 10.841781616210938,4.421844482421875 L 10.869354248046875,3.921844482421875 L 10.822616577148438,3.421844482421875 L 10.6448974609375,2.921844482421875 L 10.38092041015625,2.48358154296875 L 10.013137817382812,2.1425933837890625 L 9.642166137695312,1.80328369140625 L 9.19451904296875,1.5713043212890625 L 8.7021484375,1.46173095703125 L 8.203384399414062,1.4024658203125 L 7.7033843994140625,1.431488037109375 L 7.2110137939453125,1.5997161865234375 L 6.8320465087890625,1.9406585693359375 L 6.4530792236328125,2.2983856201171875 L 6.1252288818359375,2.6913299560546875 L 5.9075775146484375,3.164764404296875 L 5.8065185546875,3.6647491455078125 L 5.880401611328125,4.16473388671875 L 5.9814453125,4.6647186279296875 L 6.21026611328125,5.141510009765625 L 6.4598388671875,5.6065673828125 L 6.8307952880859375,5.997833251953125 L 7.294403076171875,6.2364959716796875 L 7.79315185546875,6.3929901123046875 L 8.293136596679688,6.3387603759765625 L 8.2032470703125,6.3896026611328125 M 13.273361206054688,6.489837646484375 L 13.273361206054688,6.489837646484375 L 12.967864990234375,6.09014892578125 L 12.715072631835938,5.65020751953125 L 12.840087890625,5.15020751953125 L 13.08648681640625,4.676727294921875 L 13.347244262695312,4.2066192626953125 L 13.627182006835938,3.7415313720703125 L 14.022109985351562,3.3770599365234375 L 14.5220947265625,3.377593994140625 L 15.022079467773438,3.4049530029296875 L 15.522064208984375,3.47760009765625 L 16.022048950195312,3.597198486328125 L 16.50482177734375,3.7872314453125 L 16.872604370117188,4.1734619140625 L 16.978439331054688,4.6734466552734375 L 16.851837158203125,5.173431396484375 L 16.599044799804688,5.6468658447265625 L 16.135421752929688,5.8888702392578125 L 15.670196533203125,6.12921142578125 L 15.204971313476562,6.3695526123046875 L 14.73974609375,6.609893798828125 L 14.23974609375,6.5087127685546875 L 13.73974609375,6.3572235107421875 L 13.23974609375,6.2627410888671875 L 12.780929565429688,6.4276123046875 M 10.1583251953125,6.8679351806640625 L 10.1583251953125,6.8679351806640625 L 9.98699951171875,7.10491943359375 L 9.804489135742188,7.6049041748046875 L 9.621978759765625,8.104888916015625 L 9.562454223632812,8.604873657226562 L 9.732177734375,9.1048583984375 L 9.97857666015625,9.58331298828125 L 10.189834594726562,10.078536987304688 L 10.220596313476562,10.578521728515625 L 10.0380859375,11.078506469726562 L 9.691070556640625,11.483184814453125 L 9.272171020507812,11.809036254882812 L 8.821334838867188,12.079559326171875 L 8.608489990234375,12.561370849609375 L 8.634475708007812,13.061355590820312 L 8.678024291992188,13.56134033203125 L 8.926010131835938,14.041473388671875 L 9.30975341796875,14.442794799804688 L 9.7685546875,14.721694946289062 L 10.262496948242188,14.916748046875 L 10.762481689453125,14.865859985351562 L 11.256423950195312,14.645614624023438 L 11.74078369140625,14.381759643554688 L 11.953628540039062,13.90325927734375 L 12.402847290039062,13.6075439453125 L 12.898391723632812,13.432571411132812 L 13.38916015625,13.604141235351562 L 13.787277221679688,13.92999267578125 L 14.182205200195312,14.265899658203125 L 14.58990478515625,14.422393798828125 M 14.264678955078125,5.9909210205078125 L 14.264678955078125,5.9909210205078125 L 14.570159912109375,5.723724365234375 L 14.883636474609375,5.3877716064453125 L 15.198699951171875,5.040069580078125 L 15.513763427734375,4.6923675537109375 M 7.3971099853515625,4.41143798828125 L 7.3971099853515625,4.41143798828125 L 7.8970947265625,4.4387969970703125 L 8.397079467773438,4.466156005859375 L 8.897064208984375,4.4935150146484375 L 9.397048950195312,4.5208740234375 L 9.32952880859375,4.4196929931640625 L 9.147018432617188,3.9579620361328125 L 8.972488403320312,3.4844818115234375 L 8.78997802734375,3.0126800537109375 L 8.607467651367188,2.5408782958984375 L 8.424957275390625,2.0690765380859375 L 8.298355102539062,1.7381439208984375 L 7.91619873046875,2.0941925048828125 L 7.52923583984375,2.4267578125 L 7.14068603515625,2.77105712890625 L 6.785675048828125,3.158966064453125 L 6.4306640625,3.548553466796875 L 6.1219635009765625,3.973358154296875 L 5.888336181640625,4.4149322509765625 L 6.011749267578125,4.4607391357421875 L 6.510498046875,4.6390228271484375 L 7.0104827880859375,4.8156280517578125 L 7.510467529296875,4.9335479736328125 M 13.045135498046875,3.228912353515625 L 13.045135498046875,3.228912353515625 L 13.333053588867188,2.80743408203125 L 13.782272338867188,2.51507568359375 L 14.274627685546875,2.32501220703125 L 14.774612426757812,2.3875885009765625 L 15.25738525390625,2.57257080078125 L 15.720993041992188,2.7994842529296875 L 16.179794311523438,3.0280914306640625 L 16.664154052734375,3.209716796875 L 17.159698486328125,3.322601318359375 L 17.653640747070312,3.322601318359375 L 18.149185180664062,3.171112060546875 L 18.54730224609375,2.8385009765625 L 18.945419311523438,2.505889892578125 L 19.394638061523438,2.1699371337890625 M 11.281982421875,2.560272216796875 L 11.281982421875,2.560272216796875 L 11.155380249023438,2.0817718505859375 L 11.030380249023438,1.59320068359375 L 10.825515747070312,1.129791259765625 L 10.526397705078125,1.0 L 10.164993286132812,1.0 L 9.8035888671875,1.0 L 9.42620849609375,1.0 L 9.0296630859375,1.0 L 8.634719848632812,1.0 L 8.274917602539062,1.0 L 7.966217041015625,1.0 L 7.67669677734375,1.0 L 7.3839874267578125,1.0 L 7.092864990234375,1.0 L 6.742645263671875,1.0 L 6.3908233642578125,1.0 L 6.048583984375,1.0 L 6.00341796875,1.0 L 6.019805908203125,1.0 L 6.0649566650390625,1.0 L 6.2410736083984375,1.0 L 6.4235687255859375,1.0 L 6.602874755859375,1.0 L 6.756622314453125,1.0 L 6.88641357421875,1.0 L 7.0146026611328125,1.0 M 13.667388916015625,16.960861206054688 L 13.667388916015625,16.960861206054688 L 13.1973876953125,16.69366455078125 L 12.727386474609375,16.411361694335938 L 12.727386474609375,16.075408935546875 L 12.853973388671875,16.106109619140625 L 13.353958129882812,16.21563720703125 L 13.795196533203125,16.53814697265625 L 13.960128784179688,17.0 L 14.209701538085938,17.0 L 14.3746337890625,17.0 L 14.836639404296875,17.0 L 15.303436279296875,17.0 L 15.770233154296875,17.0 M 16.197540283203125,9.7828369140625 L 16.197540283203125,9.7828369140625 L 16.697525024414062,9.843734741210938 L 17.197509765625,9.904632568359375 L 17.697494506835938,9.965530395507812 L 18.197479248046875,10.02642822265625 L 18.697463989257812,10.087326049804688 L 19.19744873046875,10.14990234375 L 19.697433471679688,10.210800170898438 L 20.197418212890625,10.271697998046875 L 20.697402954101562,10.332595825195312 L 21.098724365234375,10.660125732421875 L 20.681427001953125,10.940704345703125 L 20.236984252929688,11.139114379882812 L 19.782943725585938,11.32745361328125 L 19.33050537109375,11.509078979492188 L 18.878067016601562,11.690704345703125 L 18.425628662109375,11.872329711914062 L 17.973190307617188,12.053955078125 L 17.520751953125,12.235580444335938 L 17.068313598632812,12.417205810546875 L 16.615875244140625,12.598831176757812 L 16.163436889648438,12.78045654296875 L 15.704620361328125,12.962081909179688 L 15.933441162109375,13.462066650390625 L 16.352325439453125,13.799652099609375 L 16.835098266601562,14.009796142578125 L 17.3350830078125,14.117645263671875 L 17.835067749023438,14.065093994140625 L 18.335052490234375,13.93707275390625 L 18.835037231445312,13.809051513671875 L 19.33502197265625,13.6810302734375 L 19.835006713867188,13.553009033203125 L 20.334991455078125,13.426666259765625 L 20.834976196289062,13.300323486328125 L 21.3349609375,13.173980712890625 L 21.834945678710938,13.047637939453125 L 22.2857666015625,12.969940185546875 L 22.20068359375,13.0543212890625 L 22.014968872070312,13.554306030273438 L 21.929885864257812,13.496719360351562 L 21.929885864257812,12.996719360351562 L 21.930313110351562,12.496719360351562 L 21.800506591796875,12.42236328125 L 21.696258544921875,12.42236328125 L 21.196258544921875,12.582199096679688 L 20.897140502929688,13.027114868164062 L 21.2249755859375,13.467010498046875 L 21.565597534179688,13.895172119140625 L 21.879074096679688,14.31158447265625 M 19.822769165039062,7.4783782958984375 L 19.822769165039062,7.4783782958984375 L 19.581161499023438,7.03509521484375 L 19.27886962890625,6.59515380859375 L 18.970169067382812,6.1719970703125 L 18.470169067382812,6.0775146484375 L 18.030502319335938,6.3346099853515625 L 17.72821044921875,6.7476654052734375 L 17.800506591796875,7.247650146484375 L 18.088424682617188,7.690887451171875 L 18.488143920898438,8.031829833984375 L 18.887863159179688,8.372772216796875 L 19.3275146484375,8.6734619140625 L 19.668136596679688,9.06640625 L 19.908126831054688,9.524734497070312 L 20.141738891601562,9.989791870117188 L 20.375350952148438,10.454849243164062 L 20.650482177734375,10.696853637695312 L 20.638870239257812,10.592315673828125 L 20.890045166015625,10.117156982421875 L 21.390029907226562,10.031051635742188 L 21.8900146484375,9.889617919921875 L 22.297714233398438,9.550308227539062 L 22.572845458984375,9.0986328125 L 22.809661865234375,8.638580322265625 L 22.984176635742188,8.1617431640625 L 23.088424682617188,7.6782073974609375 L 23.036880493164062,7.1782073974609375 L 22.849578857421875,6.7064056396484375 L 22.478607177734375,6.362060546875 L 22.024566650390625,6.106597900390625 L 21.52740478515625,6.175872802734375 L 21.11968994140625,6.4698638916015625 L 20.895660400390625,6.92987060546875 L 20.68438720703125,7.4049835205078125 L 20.477920532226562,7.880096435546875 L 20.34490966796875,8.212661743164062 M 6.159088134765625,9.469100952148438 L 6.159088134765625,9.469100952148438 L 6.407073974609375,9.727874755859375 L 6.835540771484375,10.00677490234375 L 7.311920166015625,10.262191772460938 L 7.788299560546875,10.517608642578125 L 8.264678955078125,10.771347045898438 L 8.36572265625,10.769088745117188 L 8.699966430664062,10.49853515625 L 8.9176025390625,10.035125732421875 L 8.61370849609375,9.595184326171875 L 8.11370849609375,9.413497924804688 L 7.862518310546875,9.772903442382812 L 7.9907073974609375,9.760589599609375 L 8.479873657226562,9.50177001953125 L 8.391586303710938,9.016555786132812 L 8.10845947265625,8.598419189453125 L 7.751861572265625,8.254074096679688 L 7.2563018798828125,8.31329345703125 L 6.821441650390625,8.56536865234375 L 6.7443389892578125,9.065353393554688 L 6.823028564453125,9.565338134765625 L 6.8266448974609375,9.4541015625 L 6.871795654296875,8.9541015625 L 6.8314361572265625,8.4541015625 L 6.5243377685546875,8.06951904296875 L 6.1501617431640625,7.74530029296875 L 5.7696075439453125,7.432830810546875 L 5.3890533447265625,7.1320953369140625 L 5.0100860595703125,6.83135986328125 L 4.6311187744140625,6.5306243896484375 L 4.2521514892578125,6.229888916015625 L 3.7981109619140625,6.036468505859375 L 3.2981109619140625,6.083953857421875 L 2.9143524169921875,6.421539306640625 L 2.580108642578125,6.801055908203125 L 2.599700927734375,7.3010406494140625 L 2.8412933349609375,7.7845306396484375 L 3.1467742919921875,8.21771240234375 L 3.583221435546875,8.521759033203125 L 4.069183349609375,8.70172119140625 L 4.5663299560546875,8.814605712890625 L 5.0618743896484375,8.99456787109375 L 5.373748779296875,9.40594482421875 L 5.66644287109375,9.829055786132812 L 6.0469970703125,10.198516845703125 L 6.5042266845703125,10.430465698242188 L 6.964630126953125,10.660736083984375 L 7.4553985595703125,10.828964233398438 L 7.95538330078125,10.893203735351562 M 3.232208251953125,7.9307403564453125 L 3.232208251953125,7.9307403564453125 L 3.521728515625,7.5059051513671875 L 3.811248779296875,7.0810699462890625 L 4.14068603515625,6.6813812255859375 L 4.5148468017578125,6.2833709716796875 M 2.4601287841796875,8.9150390625 L 2.4601287841796875,8.9150390625 L 2.960113525390625,8.915573120117188 L 3.4600982666015625,8.915573120117188 L 3.9600830078125,8.87811279296875 L 4.4600677490234375,8.830581665039062 L 4.960052490234375,8.778030395507812 L 5.4600372314453125,8.722122192382812 L 5.96002197265625,8.666213989257812 L 6.4600067138671875,8.610305786132812 L 6.959991455078125,8.552719116210938 L 7.4599761962890625,8.496810913085938 L 7.9599609375,8.440902709960938 L 8.459945678710938,8.384994506835938 L 8.959930419921875,8.329086303710938 L 9.459915161132812,8.273178100585938 M 5.7608642578125,5.8968505859375 L 5.7608642578125,5.8968505859375 L 5.5112762451171875,6.3669281005859375 L 5.2568817138671875,6.833648681640625 L 5.0056915283203125,7.3003692626953125 L 4.827972412109375,7.7855377197265625 L 4.6502532958984375,8.270706176757812 L 4.4725341796875,8.755874633789062 L 4.2948150634765625,9.244400024414062 L 4.117095947265625,9.731246948242188 L 3.9393768310546875,10.218093872070312 L 3.76165771484375,10.704940795898438 L 3.5839385986328125,11.191787719726562 L 3.407806396484375,11.678634643554688 M 7.88134765625,3.6291351318359375 L 7.88134765625,3.6291351318359375 L 7.93927001953125,3.1573333740234375 L 7.56829833984375,3.0628509521484375 L 7.44647216796875,3.562835693359375 L 7.870147705078125,3.9306182861328125 L 8.100555419921875,3.4655303955078125 L 7.606597900390625,3.553253173828125 L 7.7220306396484375,4.0532379150390625 L 8.116958618164062,3.6854095458984375 L 7.6169586181640625,3.707733154296875 L 7.639739990234375,4.2077178955078125 L 8.12890625,4.0411224365234375 L 7.9128570556640625,3.5793914794921875 L 7.554656982421875,3.9387969970703125 L 7.9847259521484375,4.269683837890625 L 8.314163208007812,3.8750152587890625 L 7.8141632080078125,3.8123931884765625 L 7.7945556640625,4.3123779296875 L 8.294540405273438,4.1541900634765625 M 11.18292236328125,14.662750244140625 L 11.18292236328125,14.662750244140625 L 10.910964965820312,15.109344482421875 L 10.658172607421875,15.571029663085938 L 10.405380249023438,16.03271484375 L 10.152587890625,16.494400024414062 L 9.899795532226562,16.956085205078125 L 9.647003173828125,17.0 L 9.394210815429688,17.0 L 9.488861083984375,16.965896606445312 L 9.813522338867188,16.9334716796875 L 10.253173828125,17.0 L 10.688034057617188,17.0 L 11.122894287109375,17.0 L 11.567337036132812,17.0 L 12.013381958007812,17.0 L 12.462600708007812,17.0 L 12.423843383789062,16.895462036132812 L 12.11834716796875,16.544418334960938 L 11.800079345703125,16.1614990234375 L 11.518539428710938,15.728271484375 L 11.705825805664062,15.367156982421875 L 11.952224731445312,14.969146728515625 L 11.76971435546875,14.490646362304688 L 11.38916015625,14.193252563476562 L 11.33282470703125,14.28936767578125 L 11.255722045898438,14.544784545898438 L 11.18341064453125,14.69287109375 M 11.0303955078125,15.135452270507812 L 11.0303955078125,15.135452270507812 L 11.530380249023438,15.000732421875 L 12.030364990234375,14.866012573242188 L 12.530349731445312,14.731292724609375 M 12.595169067382812,11.551986694335938 L 12.595169067382812,11.551986694335938 L 13.09515380859375,11.459182739257812 L 13.595138549804688,11.3563232421875 L 14.095123291015625,11.25848388671875 L 14.595108032226562,11.16064453125 L 15.0950927734375,11.059463500976562 L 15.595077514648438,10.958282470703125 M 15.14617919921875,10.337783813476562 L 15.14617919921875,10.337783813476562 L 14.64617919921875,10.313735961914062 L 14.14617919921875,10.289688110351562 L 13.64617919921875,10.265640258789062 L 13.14617919921875,10.241592407226562 L 12.64617919921875,10.217544555664062 L 12.14617919921875,10.198532104492188 M 12.708053588867188,9.576339721679688 L 12.708053588867188,9.576339721679688 L 13.208038330078125,9.576873779296875 L 13.708023071289062,9.541091918945312 L 14.2080078125,9.490203857421875 L 14.707992553710938,9.439315795898438 L 15.207977294921875,9.386764526367188 L 15.707962036132812,9.319122314453125 M 15.640121459960938,8.3394775390625 L 15.640121459960938,8.3394775390625 L 15.140121459960938,8.31207275390625 L 14.640121459960938,8.28466796875 L 14.140121459960938,8.25726318359375 L 13.640121459960938,8.231536865234375 L 13.140121459960938,8.204132080078125 L 12.640121459960938,8.176727294921875 L 12.140121459960938,8.149322509765625 M 12.440032958984375,8.9320068359375 L 12.440032958984375,8.9320068359375 L 12.925994873046875,8.701705932617188 L 13.411956787109375,8.471405029296875 L 13.897918701171875,8.241104125976562 L 14.380691528320312,8.012466430664062 L 14.86505126953125,7.78216552734375 L 15.349411010742188,7.5501861572265625 L 15.83697509765625,7.3215484619140625 M 12.247512817382812,8.981170654296875 L 12.247512817382812,8.981170654296875 L 12.27508544921875,8.481170654296875 L 12.294677734375,8.373275756835938 L 12.346206665039062,8.262039184570312 M 15.796905517578125,8.25396728515625 L 15.796905517578125,8.25396728515625 L 15.858016967773438,7.75396728515625 L 15.922317504882812,7.25396728515625 M 13.957489013671875,8.136276245117188 L 13.957489013671875,8.136276245117188 L 14.03936767578125,7.7349090576171875 L 13.6029052734375,8.025543212890625 L 13.753463745117188,8.525527954101562 L 13.87847900390625,8.481353759765625 L 13.985916137695312,8.479095458984375 L 14.047027587890625,8.374557495117188 L 13.96673583984375,8.296859741210938 M 20.829376220703125,4.445220947265625 L 20.829376220703125,4.445220947265625 M 21.55859375,4.39990234375 L 21.55859375,4.39990234375 L 22.058578491210938,4.477569580078125 M 21.1148681640625,5.057708740234375 L 21.1148681640625,5.057708740234375 L 20.986663818359375,5.0386962890625 M 21.112030029296875,5.73284912109375 L 21.112030029296875,5.73284912109375 L 21.612014770507812,5.8625030517578125 L 21.967010498046875,5.484619140625 L 22.254928588867188,5.053070068359375 M 22.352783203125,4.9837493896484375 L 22.352783203125,4.9837493896484375 L 22.680618286132812,4.589080810546875 L 22.4134521484375,4.149139404296875 L 22.008926391601562,3.8400115966796875 L 21.620376586914062,4.1960601806640625 L 22.120361328125,4.0814666748046875 L 22.202239990234375,3.5828399658203125 L 21.844039916992188,3.238494873046875 L 21.429931640625,2.949493408203125 L 20.929931640625,2.947235107421875 L 20.504653930664062,2.6951141357421875 L 20.071395874023438,2.4547271728515625 L 19.61895751953125,2.247894287109375 L 19.120193481445312,2.1986846923828125 L 18.621429443359375,2.147796630859375 L 18.125869750976562,2.0466156005859375 L 17.960922241210938,1.5748138427734375" fill="none" stroke="#000000" stroke-width="0.0206282958984375"/>
</svg>
