<?xml version="1.0" ?>
<svg baseProfile="full" height="384px" version="1.1" viewBox="3.1047972869873046 4.126338119506836 17.66625991821289 11.280145416259765" width="600px" xmlns="http://www.w3.org/2000/svg" xmlns:ev="http://www.w3.org/2001/xml-events" xmlns:xlink="http://www.w3.org/1999/xlink">
	<defs/>
	<path d="M 5.316253662109375,5.072479248046875 L 5.316253662109375,5.072479248046875 L 5.7645721435546875,5.3380279541015625 L 6.211212158203125,5.60357666015625 L 6.6578521728515625,5.8691253662109375 L 7.1044921875,6.134674072265625 L 7.5511322021484375,6.4002227783203125 L 7.997772216796875,6.665771484375 M 10.6776123046875,8.249542236328125 L 10.6776123046875,8.249542236328125 L 11.124252319335938,8.513504028320312 L 11.570892333984375,8.7774658203125 L 12.017532348632812,9.041427612304688 L 12.46417236328125,9.306976318359375 L 12.910812377929688,9.572525024414062 M 12.582870483398438,10.337158203125 L 12.582870483398438,10.337158203125 L 12.0828857421875,10.27923583984375 L 11.582901000976562,10.2213134765625 L 11.082916259765625,10.16339111328125 L 10.582931518554688,10.10546875 L 10.08294677734375,10.04754638671875 L 9.582962036132812,9.9896240234375 M 7.083038330078125,9.696807861328125 L 7.083038330078125,9.696807861328125 L 6.5830535888671875,9.638885498046875 L 6.08306884765625,9.580963134765625 L 5.5830841064453125,9.523040771484375 L 5.083099365234375,9.465118408203125 L 4.5831146240234375,9.407196044921875 M 5.1617889404296875,9.701889038085938 L 5.1617889404296875,9.701889038085938 L 5.6369476318359375,9.828475952148438 L 6.1121063232421875,9.955062866210938 L 6.5872650146484375,10.081649780273438 L 7.0641021728515625,10.2098388671875 L 7.5409393310546875,10.338027954101562 L 8.017776489257812,10.466217041015625 L 8.494613647460938,10.594406127929688 L 8.971450805664062,10.72259521484375 M 12.776077270507812,11.74810791015625 L 12.776077270507812,11.74810791015625 L 13.251235961914062,11.87469482421875 L 13.726394653320312,12.00128173828125 L 14.201553344726562,12.12786865234375 L 14.676712036132812,12.25445556640625 L 15.153549194335938,12.397018432617188 L 15.628707885742188,12.523605346679688 L 16.103866577148438,12.650192260742188 L 16.579025268554688,12.776779174804688 L 17.054183959960938,12.903366088867188 L 17.529342651367188,13.029953002929688 L 18.004501342773438,13.156539916992188 L 18.479660034179688,13.28472900390625 L 18.309768676757812,13.244369506835938 L 17.809783935546875,13.135330200195312 L 17.309799194335938,13.026290893554688 L 17.190200805664062,12.957183837890625 L 16.690216064453125,12.881683349609375 L 16.190231323242188,12.806182861328125 L 15.69024658203125,12.730682373046875 M 11.190383911132812,12.048004150390625 L 11.190383911132812,12.048004150390625 L 10.690399169921875,11.96612548828125 L 10.190414428710938,11.884246826171875 L 9.6904296875,11.8023681640625 L 9.190444946289062,11.720489501953125 L 8.690460205078125,11.63861083984375 L 8.190475463867188,11.556732177734375 L 8.28997802734375,11.603469848632812 L 8.773513793945312,11.702911376953125 L 9.257049560546875,11.802352905273438 L 9.753997802734375,11.90020751953125 L 10.240890502929688,12.001251220703125 M 13.170562744140625,12.597900390625 L 13.170562744140625,12.597900390625 L 13.6624755859375,12.697341918945312 L 14.154388427734375,12.796783447265625 L 14.64630126953125,12.896224975585938 L 15.138214111328125,12.99566650390625 L 15.630126953125,13.095108032226562 L 16.122039794921875,13.194549560546875 M 16.925201416015625,13.693038940429688 L 16.925201416015625,13.693038940429688 L 16.425216674804688,13.693466186523438 L 15.92523193359375,13.693893432617188 L 15.425247192382812,13.693893432617188 L 14.925262451171875,13.693893432617188 M 11.505996704101562,13.815155029296875 L 11.505996704101562,13.815155029296875 L 11.997909545898438,13.847518920898438 L 12.491500854492188,13.8798828125 L 12.985092163085938,13.912246704101562 L 13.478683471679688,13.944610595703125 L 13.972274780273438,13.976974487304688 L 14.464187622070312,14.00933837890625 L 14.956100463867188,14.041702270507812 L 15.448013305664062,14.074066162109375 L 15.939926147460938,14.106430053710938 L 16.431838989257812,14.1387939453125 L 16.925430297851562,14.171157836914062 L 16.805831909179688,14.137176513671875 L 16.30584716796875,14.092010498046875 L 15.805862426757812,14.046844482421875 L 15.305877685546875,14.003280639648438 L 14.805892944335938,13.958114624023438 L 14.917129516601562,13.9512939453125 L 15.397308349609375,13.99163818359375 L 15.88922119140625,14.031982421875 M 16.35723876953125,14.10418701171875 L 16.35723876953125,14.10418701171875 L 15.857254028320312,14.071807861328125 L 15.357269287109375,14.0394287109375 L 14.857284545898438,14.007049560546875 L 14.3572998046875,13.976272583007812 L 13.857315063476562,13.94549560546875 L 13.357330322265625,13.914718627929688 L 12.857345581054688,13.883941650390625 L 12.35736083984375,13.853164672851562 L 11.857376098632812,13.820785522460938 L 11.357391357421875,13.788406372070312 L 10.857406616210938,13.75762939453125 L 10.357421875,13.726852416992188 L 9.857437133789062,13.696075439453125 M 12.049575805664062,14.099151611328125 L 12.049575805664062,14.099151611328125 L 12.549575805664062,14.117141723632812 L 13.049575805664062,14.136734008789062 L 13.549575805664062,14.157913208007812 L 14.049575805664062,14.179092407226562 L 14.549575805664062,14.200271606445312 L 15.049575805664062,14.221450805664062 L 15.549575805664062,14.241043090820312 L 16.049575805664062,14.260635375976562 L 16.549575805664062,14.280227661132812 L 17.049575805664062,14.299819946289062 L 17.549575805664062,14.319412231445312 L 17.424957275390625,14.3157958984375 L 16.924972534179688,14.312179565429688 L 16.42498779296875,14.308563232421875 L 16.3238525390625,14.252227783203125 L 15.823867797851562,14.194305419921875 M 15.16827392578125,13.971755981445312 L 15.16827392578125,13.971755981445312 L 15.66827392578125,13.971755981445312 L 16.16827392578125,13.971755981445312 L 16.66827392578125,13.971755981445312 L 17.16827392578125,13.971755981445312 L 17.66827392578125,13.971755981445312 L 18.16827392578125,13.971755981445312 L 18.66827392578125,13.971755981445312 L 18.55706787109375,13.964935302734375 L 18.057083129882812,13.964935302734375 M 15.057174682617188,13.986953735351562 L 15.057174682617188,13.986953735351562 L 14.55718994140625,14.012939453125 L 14.057205200195312,14.038925170898438 L 13.557220458984375,14.063308715820312 L 13.057235717773438,14.087692260742188 L 13.134933471679688,14.151992797851562 L 13.634933471679688,14.277008056640625 L 14.134933471679688,14.402023315429688 L 14.634933471679688,14.431182861328125 L 15.134933471679688,14.460342407226562 L 15.634933471679688,14.408798217773438 L 16.134933471679688,14.357254028320312 M 18.13494873046875,14.079925537109375 L 18.13494873046875,14.079925537109375 L 17.634963989257812,14.060317993164062 L 17.134979248046875,14.04071044921875 L 16.634994506835938,14.021102905273438 L 16.135009765625,14.001495361328125 L 15.939956665039062,13.929183959960938 L 16.439956665039062,13.79937744140625 L 16.517654418945312,13.29937744140625 L 16.131423950195312,12.9395751953125 L 15.657989501953125,12.729904174804688 L 15.23150634765625,12.426010131835938 L 14.805023193359375,12.118911743164062 M 17.895675659179688,6.730194091796875 L 17.895675659179688,6.730194091796875 L 17.988479614257812,7.2301788330078125 L 17.835342407226562,7.73016357421875 L 17.452468872070312,8.107528686523438 L 17.0511474609375,8.460922241210938 L 16.611251831054688,8.745635986328125 L 16.848281860351562,9.23480224609375 L 17.26641845703125,9.556259155273438 L 17.758331298828125,9.439239501953125 L 17.459304809570312,9.060272216796875 L 16.959320068359375,9.146942138671875 M 16.5517578125,9.688247680664062 L 16.5517578125,9.688247680664062 L 16.574127197265625,10.188232421875 L 16.182861328125,10.552810668945312 L 15.893905639648438,10.109954833984375 L 16.38079833984375,10.03924560546875 L 16.378585815429688,10.539230346679688 L 15.87860107421875,10.574798583984375 L 16.129043579101562,10.082427978515625 L 16.421401977539062,10.531646728515625 L 15.954681396484375,10.760467529296875 L 16.015625,10.260467529296875 L 16.515625,10.387054443359375 L 16.110946655273438,10.730880737304688 M 15.473419189453125,8.881683349609375 L 15.473419189453125,8.881683349609375 L 15.973419189453125,8.881683349609375 L 16.473419189453125,8.881683349609375 L 16.973419189453125,8.881683349609375 L 17.473419189453125,8.881683349609375 L 17.973419189453125,8.881683349609375 L 18.473419189453125,8.881683349609375 L 17.973434448242188,8.755081176757812 L 17.47344970703125,8.62847900390625 L 16.973464965820312,8.501876831054688 L 16.473480224609375,8.373672485351562 M 12.473602294921875,7.35284423828125 L 12.473602294921875,7.35284423828125 L 11.973617553710938,7.224639892578125 L 11.4736328125,7.096435546875 L 10.973648071289062,6.9698333740234375 L 10.473663330078125,6.8416290283203125 L 9.973678588867188,6.71502685546875 L 9.47369384765625,6.5884246826171875 L 9.782821655273438,7.028076171875 L 10.145614624023438,7.413421630859375 L 10.5201416015625,7.7875823974609375 L 10.899703979492188,8.158538818359375 L 11.297714233398438,8.489578247070312 M 15.299636840820312,11.756820678710938 L 15.299636840820312,11.756820678710938 L 15.741256713867188,12.012802124023438 L 16.18621826171875,12.260787963867188 L 16.65802001953125,12.44488525390625 L 17.15802001953125,12.509185791015625 L 17.292739868164062,12.52398681640625 L 17.792739868164062,12.538787841796875 L 18.292739868164062,12.569549560546875 L 18.792739868164062,12.629074096679688 L 19.292739868164062,12.686996459960938 L 19.183212280273438,12.676971435546875 L 18.689666748046875,12.575912475585938 L 18.196121215820312,12.474853515625 L 17.700897216796875,12.373794555664062 L 17.205673217773438,12.272735595703125 M 17.072662353515625,12.2579345703125 L 17.072662353515625,12.2579345703125 L 16.572677612304688,12.23992919921875 L 16.07269287109375,12.223526000976562 L 15.572708129882812,12.205520629882812 L 15.072723388671875,12.187515258789062 L 14.572738647460938,12.169509887695312 L 14.683975219726562,12.173126220703125 L 15.083663940429688,12.173126220703125 L 15.583663940429688,12.178329467773438 L 16.083663940429688,12.194717407226562 L 16.583663940429688,12.21270751953125 L 17.083663940429688,12.230697631835938 L 17.33074951171875,12.256683349609375" fill="none" stroke="#000000" stroke-width="0.014709625244140625"/>
</svg>
