<?xml version="1.0" ?>
<svg baseProfile="full" height="600px" version="1.1" viewBox="4.040575538635254 1.85288175201416 8.004176071166992 15.365876510620117" width="313px" xmlns="http://www.w3.org/2000/svg" xmlns:ev="http://www.w3.org/2001/xml-events" xmlns:xlink="http://www.w3.org/1999/xlink">
	<defs/>
	<path d="M 6.2314300537109375,12.261276245117188 L 6.2314300537109375,12.261276245117188 L 5.783782958984375,12.432846069335938 L 5.3313446044921875,12.68994140625 L 5.187164306640625,13.189926147460938 L 5.2003631591796875,13.689910888671875 L 5.256683349609375,14.189895629882812 L 5.404052734375,14.68988037109375 L 5.6456451416015625,15.185104370117188 L 6.0022430419921875,15.603195190429688 L 6.496185302734375,15.815017700195312 L 6.9961700439453125,15.932937622070312 L 7.49615478515625,15.9005126953125 L 7.9961395263671875,15.794296264648438 L 8.496124267578125,15.68975830078125 L 8.994873046875,15.539947509765625 L 9.408966064453125,15.205657958984375 L 9.810287475585938,14.869705200195312 L 10.122161865234375,14.464981079101562 L 10.354171752929688,14.004928588867188 L 10.40570068359375,13.504928588867188 L 10.43646240234375,13.004928588867188 L 10.27471923828125,12.504928588867188 L 10.114578247070312,12.004928588867188 L 9.93206787109375,11.504928588867188 L 9.680877685546875,11.029769897460938 L 9.3370361328125,10.613311767578125 L 8.921340942382812,10.401443481445312 L 8.801116943359375,10.3690185546875 L 8.35986328125,10.10516357421875 L 7.9984588623046875,9.757461547851562 L 7.5811614990234375,9.443313598632812 L 7.0811614990234375,9.409210205078125 L 6.5811614990234375,9.572402954101562 L 6.219757080078125,9.7674560546875 L 5.86474609375,9.969223022460938 L 5.557647705078125,10.17266845703125 L 5.4310455322265625,10.381134033203125 L 5.3363800048828125,10.440353393554688 L 5.157073974609375,10.553237915039062 L 4.9777679443359375,10.666122436523438 L 4.7808837890625,10.938323974609375 L 4.7133636474609375,11.257476806640625 L 4.712921142578125,11.576629638671875 L 4.734100341796875,11.900802612304688 L 4.753692626953125,12.226654052734375 L 4.774871826171875,12.57598876953125 L 4.79925537109375,12.9588623046875 L 4.83001708984375,13.3450927734375 L 4.978973388671875,13.845077514648438 L 5.1582794189453125,14.075347900390625 M 8.835433959960938,12.969757080078125 L 8.835433959960938,12.969757080078125 L 9.04827880859375,12.511383056640625 L 9.071060180664062,12.148590087890625 L 8.866195678710938,11.696914672851562 L 8.600631713867188,11.246917724609375 L 8.482009887695312,11.252471923828125 L 8.133392333984375,11.310012817382812 L 7.633392333984375,11.355819702148438 L 7.166595458984375,11.617950439453125 L 6.8674774169921875,12.024307250976562 L 6.80474853515625,12.103652954101562 L 6.69091796875,12.444595336914062 L 6.6074371337890625,12.507171630859375 L 6.6318206787109375,12.883331298828125 L 6.7552337646484375,13.252792358398438 L 6.9185638427734375,13.447845458984375 L 7.1649627685546875,13.522171020507812 L 7.2292633056640625,13.601516723632812 L 7.440521240234375,13.840179443359375 L 7.6661529541015625,13.891021728515625 L 7.982818603515625,13.938507080078125 L 8.374557495117188,13.938507080078125 L 8.799819946289062,13.88427734375 L 9.078155517578125,13.778060913085938 L 9.180801391601562,13.381729125976562 L 9.251510620117188,13.302352905273438 L 9.481918334960938,13.013351440429688 L 9.4351806640625,12.917190551757812 L 9.230316162109375,12.458816528320312 L 9.175567626953125,12.364334106445312 L 9.139999389648438,12.239669799804688 M 9.971542358398438,6.36138916015625 L 9.971542358398438,6.36138916015625 L 10.320144653320312,6.1646270751953125 L 10.344528198242188,6.05841064453125 L 10.296188354492188,5.620147705078125 L 10.304595947265625,5.5122528076171875 L 10.327377319335938,5.0555572509765625 L 10.277435302734375,4.9443206787109375 L 10.013458251953125,4.5127716064453125 L 9.941146850585938,4.4182891845703125 L 9.634048461914062,4.02362060546875 L 9.540985107421875,3.9526214599609375 L 9.155624389648438,3.6200103759765625 L 8.8453369140625,3.3662261962890625 L 8.348175048828125,3.1728057861328125 L 7.865386962890625,3.138702392578125 L 7.7323760986328125,3.18450927734375 L 7.2323760986328125,3.3560791015625 L 7.1041717529296875,3.3566131591796875 L 6.6041717529296875,3.3604888916015625 L 6.48394775390625,3.42138671875 L 5.994781494140625,3.6030120849609375 L 5.9080963134765625,3.6722869873046875 L 5.54669189453125,4.0501251220703125 L 5.504730224609375,4.2032623291015625 L 5.486724853515625,4.7032470703125 L 5.468719482421875,5.2032318115234375 L 5.4491119384765625,5.6649169921875 L 5.3209075927734375,5.7006683349609375 L 4.9563140869140625,5.97454833984375 L 4.91595458984375,6.090789794921875 L 4.956298828125,6.5907745361328125 L 5.0110321044921875,7.09075927734375 L 5.105682373046875,7.5907440185546875 L 5.229095458984375,7.6667327880859375 L 5.63360595703125,8.007675170898438 L 5.7282562255859375,8.090377807617188 L 6.1375579833984375,8.446426391601562 L 6.2481842041015625,8.444168090820312 L 6.7481689453125,8.598983764648438 L 6.86199951171875,8.598983764648438 L 7.3619842529296875,8.740371704101562 L 7.4630279541015625,8.714645385742188 L 7.9106597900390625,8.621841430664062 L 8.010101318359375,8.5860595703125 L 8.510086059570312,8.589935302734375 L 8.633499145507812,8.557510375976562 L 9.13348388671875,8.47308349609375 L 9.229736328125,8.432281494140625 L 9.729721069335938,8.329421997070312 L 9.787643432617188,8.2449951171875 L 10.2081298828125,7.915740966796875 L 10.278839111328125,7.8112030029296875 L 10.486892700195312,7.3528289794921875 L 10.468887329101562,7.2264862060546875 L 10.4556884765625,6.7264862060546875 L 10.473678588867188,6.620269775390625 L 10.656173706054688,6.21722412109375 L 10.638168334960938,6.09423828125 L 10.5914306640625,5.7012481689453125 L 10.544692993164062,5.596710205078125 L 10.360580444335938,5.13330078125 M 7.13568115234375,4.928497314453125 L 7.13568115234375,4.928497314453125 L 6.63568115234375,4.95751953125 L 6.5330352783203125,5.0301666259765625 L 6.3345489501953125,5.5301513671875 L 6.3557281494140625,5.90966796875 L 6.3473052978515625,6.022552490234375 L 6.330902099609375,6.5225372314453125 L 6.4159698486328125,6.6790313720703125 L 6.7358245849609375,7.1088714599609375 L 7.0588836669921875,7.5336761474609375 L 7.45062255859375,7.9199066162109375 L 7.9506072998046875,7.781829833984375 L 8.074020385742188,7.779571533203125 L 8.559982299804688,7.5459136962890625 L 8.622695922851562,7.43634033203125 L 8.803604125976562,6.961181640625 L 8.755264282226562,6.8549652099609375 L 8.710098266601562,6.3563385009765625 L 8.701675415039062,5.8563385009765625 L 8.611785888671875,5.3563385009765625 L 8.306289672851562,4.9214324951171875 L 8.176483154296875,4.83868408203125 L 7.99237060546875,4.84759521484375 L 7.685272216796875,4.62567138671875 L 7.5554656982421875,4.5915679931640625 L 7.07427978515625,4.3528594970703125 L 6.57427978515625,4.24664306640625 L 6.5067596435546875,4.327667236328125 L 6.2954864501953125,4.8011016845703125 L 6.221588134765625,4.8854827880859375 L 6.050262451171875,5.385467529296875 L 6.0035247802734375,5.503387451171875 L 6.19561767578125,5.9416046142578125 M 6.14727783203125,6.0444183349609375 L 6.14727783203125,6.0444183349609375 L 6.3936767578125,6.5128173828125 L 6.596954345703125,7.0030059814453125 L 6.51824951171875,7.0840301513671875 L 6.2590789794921875,7.5339813232421875 L 6.095733642578125,8.033966064453125 L 6.26226806640625,8.533950805664062 L 6.49267578125,9.033935546875 L 6.72308349609375,9.533920288085938 L 6.9550933837890625,10.033905029296875 L 7.4298858642578125,10.285980224609375 L 7.927032470703125,10.464263916015625 L 8.424179077148438,10.642547607421875 L 8.92132568359375,10.845993041992188 L 9.418472290039062,11.0494384765625 L 9.91845703125,10.892913818359375 L 10.278244018554688,10.699493408203125 L 10.379287719726562,10.730194091796875 L 10.831710815429688,10.994003295898438 L 10.932754516601562,10.961578369140625 L 11.372406005859375,10.922439575195312" fill="none" stroke="#000000" stroke-width="0.012794235229492188"/>
</svg>
