<?xml version="1.0" ?>
<svg baseProfile="full" height="459px" version="1.1" viewBox="16.51244834136963 4.425416786193848 7.1135463104248045 5.43331559753418" width="600px" xmlns="http://www.w3.org/2000/svg" xmlns:ev="http://www.w3.org/2001/xml-events" xmlns:xlink="http://www.w3.org/1999/xlink">
	<defs/>
	<path d="M 21.790863037109375,5.6522369384765625 L 21.790863037109375,5.6522369384765625 L 21.444869995117188,5.236541748046875 L 21.031814575195312,4.895904541015625 L 20.531829833984375,4.8827056884765625 L 20.031845092773438,4.8806610107421875 L 19.5318603515625,4.9050445556640625 L 19.031875610351562,5.002899169921875 L 18.531890869140625,5.18060302734375 L 18.098709106445312,5.4781036376953125 L 17.683975219726562,5.804351806640625 L 17.312835693359375,6.1960906982421875 L 17.107711791992188,6.6820526123046875 L 17.109970092773438,7.182037353515625 L 17.298355102539062,7.6807861328125 L 17.573959350585938,8.133209228515625 L 17.864639282226562,8.580841064453125 L 18.203948974609375,8.978958129882812 L 18.662322998046875,9.2237548828125 L 19.13916015625,9.323196411132812 L 19.624374389648438,9.403488159179688 L 20.124374389648438,9.403488159179688 L 20.599533081054688,9.219375610351562 L 21.021011352539062,8.912277221679688 L 21.41400146484375,8.597198486328125 L 21.78350830078125,8.23260498046875 L 22.124496459960938,7.8504486083984375 L 22.369903564453125,7.3900299072265625 L 22.407363891601562,6.8900299072265625 L 22.294479370117188,6.3900299072265625 L 22.09942626953125,5.9248046875 L 22.165390014648438,6.00189208984375 L 22.44769287109375,6.44952392578125 L 22.74005126953125,6.89556884765625 L 23.030731201171875,7.34320068359375 L 22.85076904296875,7.8339691162109375 L 22.47796630859375,8.227294921875 L 22.405319213867188,8.123046875 L 22.225357055664062,7.623046875 L 22.161117553710938,7.49163818359375" fill="none" stroke="#000000" stroke-width="0.005923019409179687"/>
</svg>
