<?xml version="1.0" ?>
<svg baseProfile="full" height="280px" version="1.1" viewBox="-0.8471490859985351 0.13578090667724607 22.07389106750488 10.278731155395509" width="600px" xmlns="http://www.w3.org/2000/svg" xmlns:ev="http://www.w3.org/2001/xml-events" xmlns:xlink="http://www.w3.org/1999/xlink">
	<defs/>
	<path d="M 1.0994415283203125,1.0525054931640625 L 1.0994415283203125,1.0525054931640625 L 1.206878662109375,1.0614166259765625 L 1.7040252685546875,1.0 L 1.8513946533203125,1.0 L 1.950836181640625,1.0 L 2.00396728515625,1.0 L 1.9348602294921875,1.0 L 1.7890777587890625,1.0 L 1.7087860107421875,1.0 L 1.3921051025390625,1.0 L 1.081817626953125,1.0 L 1.0,1.0 L 1.0020294189453125,1.0 L 1.0327911376953125,1.0 L 1.09869384765625,1.0 L 1.1869659423828125,1.0 L 1.2768402099609375,1.0 L 1.3171844482421875,1.0 L 1.2464752197265625,1.0 L 1.135833740234375,1.0 L 1.0,1.0 M 1.09625244140625,1.040771484375 L 1.09625244140625,1.040771484375 L 1.3170928955078125,1.1888580322265625 L 1.595428466796875,1.3956451416015625 L 1.8801422119140625,1.8238067626953125 L 2.1425018310546875,2.29388427734375 L 2.1573028564453125,2.7938690185546875 L 2.1673126220703125,3.293853759765625 L 2.1773223876953125,3.7938385009765625 L 2.1873321533203125,4.2938232421875 L 2.3682403564453125,4.7938079833984375 L 2.6880950927734375,5.2437591552734375 L 3.0814208984375,5.6333465576171875 L 3.5019073486328125,6.001129150390625 L 4.00189208984375,6.1710205078125 L 4.5018768310546875,6.287261962890625 L 5.001861572265625,6.292816162109375 L 5.5018463134765625,6.23858642578125 L 6.0018310546875,6.1374053955078125 L 6.4893951416015625,5.8819427490234375 L 6.97216796875,5.616424560546875 L 7.4549407958984375,5.3509063720703125 L 7.7875823974609375,4.936126708984375 L 7.9684906005859375,4.4525909423828125 L 7.785980224609375,3.9623565673828125 L 7.2904205322265625,3.75048828125 L 6.7904205322265625,3.9103240966796875 L 6.2964630126953125,4.137237548828125 L 6.0724334716796875,4.6123504638671875 L 6.0968170166015625,5.112335205078125 L 6.205841064453125,5.6123199462890625 L 6.338836669921875,6.1123046875 L 6.49578857421875,6.6122894287109375 L 6.73419189453125,7.112274169921875 L 7.033294677734375,7.5806732177734375 L 7.36273193359375,8.022247314453125 L 7.7560577392578125,8.411834716796875 L 8.195709228515625,8.757827758789062 L 8.643341064453125,9.061874389648438 L 9.134109497070312,9.275375366210938 L 9.63409423828125,9.448623657226562 L 10.134078979492188,9.524612426757812 L 10.634063720703125,9.55029296875 L 11.134048461914062,9.537979125976562 L 11.634033203125,9.448532104492188 L 12.124801635742188,9.209823608398438 L 12.615570068359375,8.971115112304688 L 12.917861938476562,8.732406616210938 M 9.589996337890625,8.322052001953125 L 9.589996337890625,8.322052001953125 L 9.540054321289062,8.1336669921875 L 9.488510131835938,7.9016876220703125 L 9.51129150390625,7.66802978515625 L 9.612335205078125,7.405853271484375 L 9.962539672851562,7.1386566162109375 L 10.312744140625,6.8714599609375 L 10.662948608398438,6.6042633056640625 L 11.16009521484375,6.407501220703125 L 11.660079956054688,6.348236083984375 L 12.160064697265625,6.526519775390625 L 12.355331420898438,6.9932403564453125 L 12.552200317382812,7.4716949462890625 L 12.749069213867188,7.9501495361328125 L 12.87408447265625,8.45013427734375 L 12.605331420898438,8.918533325195312 L 12.205596923828125,9.28631591796875 L 11.705596923828125,9.235427856445312 L 11.205596923828125,9.15435791015625 L 10.705596923828125,8.965972900390625 L 10.309051513671875,8.735671997070312 L 9.824676513671875,8.515426635742188 L 9.702850341796875,8.362258911132812 M 11.27984619140625,7.6136932373046875 L 11.27984619140625,7.6136932373046875 L 11.601303100585938,7.566162109375 L 11.630462646484375,7.67401123046875 L 11.71392822265625,7.8992462158203125 L 11.62884521484375,7.97357177734375 L 11.459121704101562,8.146820068359375 L 11.33251953125,8.165786743164062 L 11.233062744140625,8.178054809570312 L 11.044158935546875,8.130523681640625 L 10.970260620117188,8.0511474609375 L 11.005828857421875,7.7101593017578125 L 11.03021240234375,7.61065673828125 L 11.228683471679688,7.3417816162109375 M 14.545272827148438,7.0068206787109375 L 14.545272827148438,7.0068206787109375 L 14.6734619140625,6.7312164306640625 L 14.964584350585938,6.4656982421875 L 15.349929809570312,6.2555084228515625 L 15.847076416015625,6.0704803466796875 L 16.347061157226562,5.960906982421875 L 16.8470458984375,5.88153076171875 L 17.347030639648438,5.9508056640625 L 17.793075561523438,6.2766571044921875 L 18.211959838867188,6.637725830078125 L 18.630844116210938,6.9987945556640625 L 19.03375244140625,7.36322021484375 L 19.355209350585938,7.7964019775390625 L 19.379592895507812,8.29638671875 L 19.067718505859375,8.731246948242188 L 18.613677978515625,9.006805419921875 L 18.113677978515625,9.134780883789062 L 17.613677978515625,9.18896484375 L 17.113677978515625,9.133056640625 L 16.621307373046875,8.926223754882812 L 16.148101806640625,8.652313232421875 L 15.797882080078125,8.2559814453125 L 15.447662353515625,7.8546142578125 L 15.10382080078125,7.45660400390625 L 14.783950805664062,7.271575927734375 L 14.389007568359375,7.177093505859375 M 16.787841796875,7.0702056884765625 L 16.787841796875,7.0702056884765625 L 17.278610229492188,7.0444793701171875 L 17.3780517578125,7.0221099853515625 L 17.878036499023438,7.1249237060546875 L 17.97747802734375,7.1556243896484375 L 18.434707641601562,7.40936279296875 L 18.341644287109375,7.476959228515625 L 18.127197265625,7.6451873779296875 L 17.944686889648438,7.644622802734375 L 17.822860717773438,7.656890869140625 L 17.322860717773438,7.6926422119140625 L 17.223403930664062,7.73175048828125 L 16.726242065429688,7.904998779296875 L 16.6156005859375,7.86419677734375 L 16.342041015625,7.665740966796875 L 16.356842041015625,7.5578460693359375 L 16.42755126953125,7.47174072265625 L 16.406356811523438,7.357147216796875 L 16.435516357421875,7.2475738525390625 L 16.558929443359375,7.0642242431640625 L 16.658370971679688,7.0368194580078125" fill="none" stroke="#000000" stroke-width="0.018379592895507814"/>
</svg>
