<?xml version="1.0" ?>
<svg baseProfile="full" height="600px" version="1.1" viewBox="3.892134033203125 4.931103454589843 7.102832153320312 12.366400268554688" width="345px" xmlns="http://www.w3.org/2000/svg" xmlns:ev="http://www.w3.org/2001/xml-events" xmlns:xlink="http://www.w3.org/1999/xlink">
	<defs/>
	<path d="M 6.28277587890625,6.462066650390625 L 6.28277587890625,6.462066650390625 L 5.9066162109375,6.4185028076171875 L 5.513671875,6.37176513671875 L 5.06036376953125,6.5830230712890625 L 4.8401641845703125,7.07379150390625 L 4.6970977783203125,7.5737762451171875 L 4.6311798095703125,8.073760986328125 L 4.7357177734375,8.573745727539062 L 4.9492645263671875,9.07373046875 L 5.2701416015625,9.5213623046875 L 5.6480255126953125,9.897125244140625 L 6.1047210693359375,10.143524169921875 L 6.5999908447265625,10.241378784179688 L 7.0999908447265625,10.267364501953125 L 7.5999908447265625,10.183883666992188 L 8.006393432617188,9.846450805664062 L 8.172988891601562,9.346450805664062 L 8.319442749023438,8.846450805664062 L 8.432357788085938,8.346450805664062 L 8.270843505859375,7.8464508056640625 L 8.070755004882812,7.3464508056640625 L 7.8421478271484375,6.8524932861328125 L 7.47772216796875,6.438385009765625 L 7.0042877197265625,6.1776123046875 L 6.504302978515625,6.0510101318359375 L 6.0043182373046875,5.9659271240234375 L 5.50433349609375,5.9807281494140625 M 4.79425048828125,14.214874267578125 L 4.79425048828125,14.214874267578125 L 4.9423828125,14.714859008789062 L 5.09051513671875,15.21484375 L 5.419769287109375,15.659286499023438 L 5.8311920166015625,15.9775390625 L 6.2895660400390625,16.219131469726562 L 6.7895660400390625,16.262680053710938 L 7.2895660400390625,16.199951171875 L 7.7177581787109375,15.891250610351562 L 8.052047729492188,15.485137939453125 L 8.351119995117188,15.053451538085938 L 8.568023681640625,14.567474365234375 L 8.450103759765625,14.067474365234375 L 8.141006469726562,13.624618530273438 L 7.81011962890625,13.191360473632812 L 7.400421142578125,12.83953857421875 L 6.9004364013671875,12.709732055664062 L 6.40045166015625,12.6597900390625 L 5.9004669189453125,12.67138671875 L 5.400482177734375,12.812362670898438 L 4.9102935791015625,13.058761596679688 L 4.54083251953125,13.476043701171875 L 4.4883270263671875,13.976028442382812 M 4.5828094482421875,14.04193115234375 L 4.5828094482421875,14.04193115234375 L 4.9355316162109375,14.435256958007812 L 5.4123687744140625,14.598587036132812 L 5.9123687744140625,14.667694091796875 L 6.4123687744140625,14.693679809570312 L 6.9123687744140625,14.694107055664062 L 7.4123687744140625,14.607421875 L 7.9123687744140625,14.515960693359375 L 8.412368774414062,14.42449951171875 L 8.912368774414062,14.333038330078125 L 9.404281616210938,14.150527954101562 L 9.7989501953125,13.803512573242188 L 10.191940307617188,13.461273193359375 L 10.398773193359375,13.047164916992188" fill="none" stroke="#000000" stroke-width="0.0102967529296875"/>
</svg>
