<?xml version="1.0" ?>
<svg baseProfile="full" height="600px" version="1.1" viewBox="15.516498497009277 5.6491095809936525 3.8065568389892577 9.934584182739258" width="230px" xmlns="http://www.w3.org/2000/svg" xmlns:ev="http://www.w3.org/2001/xml-events" xmlns:xlink="http://www.w3.org/1999/xlink">
	<defs/>
	<path d="M 18.192642211914062,6.6949615478515625 L 18.192642211914062,6.6949615478515625 L 18.386062622070312,6.840728759765625 L 18.594573974609375,7.107879638671875 L 18.642105102539062,7.5682830810546875 L 18.639892578125,8.068267822265625 L 18.533721923828125,8.568252563476562 L 18.303451538085938,8.626174926757812 L 17.959152221679688,8.555465698242188 L 17.52764892578125,8.467178344726562 L 17.094467163085938,8.383697509765625 L 16.78704833984375,8.1788330078125 L 16.797683715820312,7.823822021484375 L 17.034713745117188,7.444854736328125 L 17.276763916015625,7.057891845703125 L 17.51715087890625,6.6533660888671875 L 17.846405029296875,6.480438232421875 L 18.187393188476562,6.5495452880859375 M 17.782257080078125,7.532623291015625 L 17.782257080078125,7.532623291015625 L 18.024307250976562,7.67999267578125 L 17.7923583984375,7.8497161865234375 L 17.541961669921875,7.48193359375 L 17.76556396484375,7.1365203857421875 L 18.062957763671875,7.4931182861328125 L 18.130599975585938,7.99310302734375 L 18.071380615234375,7.9096221923828125 L 17.888076782226562,7.5929412841796875 M 17.7977294921875,11.270523071289062 L 17.7977294921875,11.270523071289062 L 18.13201904296875,11.499343872070312 L 18.538421630859375,11.825592041015625 L 18.901214599609375,12.226913452148438 L 19.002395629882812,12.726898193359375 L 18.973373413085938,13.226882934570312 L 18.850433349609375,13.72686767578125 L 18.522903442382812,14.17449951171875 L 18.111526489257812,14.535888671875 L 17.616302490234375,14.72637939453125 L 17.116317749023438,14.752365112304688 L 16.6163330078125,14.563461303710938 L 16.183151245117188,14.2515869140625 L 15.837158203125,13.835891723632812 L 15.918228149414062,13.442550659179688 L 16.0965576171875,13.063583374023438 L 16.28326416015625,12.684616088867188 L 16.469970703125,12.305648803710938 L 16.661712646484375,11.926681518554688 L 16.957427978515625,11.610000610351562 L 17.323577880859375,11.677505493164062 L 17.696426391601562,11.831253051757812 L 18.06927490234375,11.994583129882812 L 18.339828491210938,11.780136108398438 M 17.579757690429688,12.958160400390625 L 17.579757690429688,12.958160400390625 L 17.195205688476562,12.598358154296875 L 17.025314331054688,12.962936401367188 L 17.173446655273438,13.462921142578125 L 17.673446655273438,13.462478637695312 L 17.900405883789062,12.979690551757812 L 17.621505737304688,12.776412963867188 L 17.453277587890625,12.573135375976562 L 17.435989379882812,12.369857788085938 L 17.54388427734375,12.869842529296875" fill="none" stroke="#000000" stroke-width="0.008271926879882813"/>
</svg>
