<?xml version="1.0" ?>
<svg baseProfile="full" height="600px" version="1.1" viewBox="11.357151710510253 8.16375724029541 5.2254548797607425 5.750839401245117" width="546px" xmlns="http://www.w3.org/2000/svg" xmlns:ev="http://www.w3.org/2001/xml-events" xmlns:xlink="http://www.w3.org/1999/xlink">
	<defs/>
	<path d="M 15.498382568359375,9.386642456054688 L 15.498382568359375,9.386642456054688 L 15.429107666015625,9.167388916015625 L 15.247482299804688,8.948135375976562 L 15.028961181640625,8.743270874023438 L 14.78192138671875,8.65020751953125 L 14.526504516601562,8.644989013671875 L 14.271087646484375,8.661376953125 L 14.015670776367188,8.68096923828125 L 13.770309448242188,8.791595458984375 L 13.560165405273438,8.975692749023438 L 13.402008056640625,9.225265502929688 L 13.280731201171875,9.52276611328125 L 13.2701416015625,9.898529052734375 L 13.327728271484375,10.256729125976562 L 13.405426025390625,10.61651611328125 L 13.578720092773438,10.616943359375 L 13.75201416015625,10.61737060546875 L 13.938720703125,10.61737060546875 L 14.1287841796875,10.635360717773438 L 14.31884765625,10.653350830078125 L 14.5089111328125,10.528350830078125 L 14.697296142578125,10.37139892578125 L 14.884002685546875,10.235214233398438 L 15.0723876953125,10.103805541992188 L 15.260772705078125,9.972396850585938 L 15.437423706054688,9.829818725585938 L 15.50506591796875,9.618545532226562 M 14.37060546875,10.675521850585938 L 14.37060546875,10.675521850585938 L 14.562347412109375,10.67755126953125 L 14.752410888671875,10.6971435546875 L 14.942474365234375,10.7279052734375 L 15.130859375,10.827346801757812 L 15.3209228515625,11.046585083007812 L 15.465713500976562,11.364837646484375 L 15.543411254882812,11.687896728515625 L 15.422134399414062,12.135528564453125 L 15.180130004882812,12.584747314453125 L 14.822402954101562,12.984466552734375 L 14.380828857421875,13.229263305664062 L 13.904037475585938,13.357452392578125 L 13.432281494140625,13.432937622070312 L 12.98065185546875,13.433364868164062 L 12.592742919921875,13.340301513671875 L 12.224960327148438,13.170578002929688 L 11.961151123046875,12.911407470703125 L 11.794601440429688,12.650634765625 L 11.80523681640625,12.4329833984375 L 11.877914428710938,12.21533203125 L 11.953933715820312,11.897064208984375 L 12.085311889648438,11.586776733398438 L 12.344131469726562,11.389892578125 L 12.619735717773438,11.240921020507812 L 12.895339965820312,11.05841064453125 L 13.170944213867188,10.875900268554688 L 13.448211669921875,10.6885986328125 M 15.41485595703125,10.336273193359375 L 15.41485595703125,10.336273193359375 L 15.591506958007812,9.976470947265625 L 15.78826904296875,9.666183471679688 L 15.993438720703125,9.35589599609375 M 15.710784912109375,11.133331298828125 L 15.710784912109375,11.133331298828125 L 15.855575561523438,11.374923706054688 L 16.0003662109375,11.650054931640625 L 16.145156860351562,11.925186157226562 M 16.028915405273438,11.870437622070312 L 16.028915405273438,11.870437622070312 L 15.5521240234375,11.633621215820312 L 15.085403442382812,11.396804809570312 L 14.632095336914062,11.16796875 L 14.193878173828125,10.942337036132812 L 13.770767211914062,10.745452880859375 L 13.371124267578125,10.567733764648438 L 12.892669677734375,10.412368774414062 L 12.923416137695312,10.511810302734375 L 12.981002807617188,10.691116333007812" fill="none" stroke="#000000" stroke-width="0.004788375854492187"/>
</svg>
