<?xml version="1.0" ?>
<svg baseProfile="full" height="600px" version="1.1" viewBox="17.572988998413084 4.219453536987305 3.648928619384766 9.17364175415039" width="239px" xmlns="http://www.w3.org/2000/svg" xmlns:ev="http://www.w3.org/2001/xml-events" xmlns:xlink="http://www.w3.org/1999/xlink">
	<defs/>
	<path d="M 20.502792358398438,6.252960205078125 L 20.502792358398438,6.252960205078125 L 20.523483276367188,6.486572265625 L 20.457565307617188,6.66748046875 L 20.205490112304688,6.834014892578125 L 19.918197631835938,7.0037384033203125 L 19.558792114257812,7.195831298828125 L 19.152435302734375,7.3895111083984375 L 18.715896606445312,7.58319091796875 L 18.2760009765625,7.684234619140625 L 18.142990112304688,7.41387939453125 L 18.198898315429688,6.9949798583984375 L 18.285003662109375,6.54254150390625 L 18.371109008789062,6.04254150390625 L 18.58465576171875,5.65399169921875 L 18.835098266601562,5.297393798828125 L 19.1727294921875,4.9871063232421875 L 19.594207763671875,5.013092041015625 L 20.02911376953125,5.1812286376953125 L 20.464019775390625,5.3685150146484375 L 20.803329467773438,5.5494232177734375 L 20.697158813476562,5.581787109375 L 20.424957275390625,5.69561767578125 L 20.419403076171875,5.8238067626953125 L 20.5692138671875,6.1532440185546875 M 20.647735595703125,10.276901245117188 L 20.647735595703125,10.276901245117188 L 20.53485107421875,10.776885986328125 L 20.421966552734375,11.276870727539062 L 20.28729248046875,11.77685546875 L 20.117401123046875,12.276840209960938 L 19.711044311523438,12.625442504882812 L 19.2110595703125,12.617019653320312 L 18.7476806640625,12.319503784179688 L 18.480514526367188,11.851104736328125 L 18.22509765625,11.374710083007812 L 17.996490478515625,10.890335083007812 L 17.8802490234375,10.390335083007812 L 18.189376831054688,9.945892333984375 L 18.689376831054688,9.965484619140625 L 19.189376831054688,10.01861572265625 L 19.689376831054688,10.1148681640625 L 20.189376831054688,10.21112060546875 L 20.689376831054688,10.29779052734375 L 20.914657592773438,10.55694580078125 M 19.260604858398438,6.4088287353515625 L 19.260604858398438,6.4088287353515625 L 19.045425415039062,6.239105224609375 L 18.853713989257812,6.362518310546875 L 18.725738525390625,6.6472320556640625 L 18.820220947265625,6.93194580078125 L 19.070663452148438,7.2166595458984375 L 19.40997314453125,7.3209075927734375 L 19.739227294921875,7.0697174072265625 L 19.716903686523438,6.770599365234375 L 19.543655395507812,6.4683074951171875 L 19.457595825195312,6.3880157470703125 M 19.226959228515625,10.014541625976562 L 19.226959228515625,10.014541625976562 L 19.167739868164062,10.225799560546875 L 19.053176879882812,10.267745971679688 L 18.903411865234375,10.311294555664062 L 18.671463012695312,10.353240966796875 L 18.441192626953125,10.393585205078125 L 18.353469848632812,10.215866088867188 L 18.416091918945312,9.814544677734375 L 18.527328491210938,9.529815673828125 L 18.750930786132812,9.642044067382812 L 18.972854614257812,9.968292236328125 L 19.203155517578125,10.070938110351562 L 19.33453369140625,10.095321655273438 M 19.225006103515625,10.095321655273438 L 19.225006103515625,10.095321655273438 L 18.862258911132812,9.989471435546875 L 18.382125854492188,9.776626586914062" fill="none" stroke="#000000" stroke-width="0.007638336181640625"/>
</svg>
