<?xml version="1.0" ?>
<svg baseProfile="full" height="312px" version="1.1" viewBox="2.2017126541137695 2.420909736633301 4.0925005950927735 2.1253436126708984" width="600px" xmlns="http://www.w3.org/2000/svg" xmlns:ev="http://www.w3.org/2001/xml-events" xmlns:xlink="http://www.w3.org/1999/xlink">
	<defs/>
	<path d="M 2.5441741943359375,2.5994415283203125 L 2.5441741943359375,2.5994415283203125 L 2.687286376953125,2.841033935546875 L 3.0249176025390625,3.2439422607421875 L 3.47491455078125,3.5334625244140625 L 3.951751708984375,3.7399139404296875 L 4.451751708984375,3.8968658447265625 L 4.951751708984375,4.0538177490234375 L 5.451751708984375,4.2107696533203125 L 5.951751708984375,4.3677215576171875 M 2.5441741943359375,2.5994415283203125 L 2.5441741943359375,2.5994415283203125 L 2.687286376953125,2.841033935546875 L 3.0249176025390625,3.2439422607421875 L 3.47491455078125,3.5334625244140625 L 3.951751708984375,3.7399139404296875 L 4.451751708984375,3.8968658447265625 L 4.951751708984375,4.0538177490234375 L 5.451751708984375,4.2107696533203125 L 5.951751708984375,4.3677215576171875 M 2.5441741943359375,2.5994415283203125 L 2.5441741943359375,2.5994415283203125 L 2.687286376953125,2.841033935546875 L 3.0249176025390625,3.2439422607421875 L 3.47491455078125,3.5334625244140625 L 3.951751708984375,3.7399139404296875 L 4.451751708984375,3.8968658447265625 L 4.951751708984375,4.0538177490234375 L 5.451751708984375,4.2107696533203125 L 5.951751708984375,4.3677215576171875 M 2.5441741943359375,2.5994415283203125 L 2.5441741943359375,2.5994415283203125 L 2.687286376953125,2.841033935546875 L 3.0249176025390625,3.2439422607421875 L 3.47491455078125,3.5334625244140625 L 3.951751708984375,3.7399139404296875 L 4.451751708984375,3.8968658447265625 L 4.951751708984375,4.0538177490234375 L 5.451751708984375,4.2107696533203125 L 5.951751708984375,4.3677215576171875" fill="none" stroke="#000000" stroke-width="0.0034075775146484378"/>
</svg>
