<?xml version="1.0" ?>
<svg baseProfile="full" height="539px" version="1.1" viewBox="9.803298622131347 3.914728981018066 13.184372604370118 11.824137008666993" width="600px" xmlns="http://www.w3.org/2000/svg" xmlns:ev="http://www.w3.org/2001/xml-events" xmlns:xlink="http://www.w3.org/1999/xlink">
	<defs/>
	<path d="M 19.744125366210938,5.9034576416015625 L 19.744125366210938,5.9034576416015625 L 19.784927368164062,5.773651123046875 L 19.825729370117188,5.6438446044921875 L 19.91015625,5.5156402587890625 L 20.130401611328125,5.4401397705078125 L 20.382522583007812,5.518829345703125 L 20.637985229492188,5.678955078125 L 20.913589477539062,5.808746337890625 L 21.19085693359375,5.95770263671875 L 21.298751831054688,6.34783935546875 L 21.3446044921875,6.742767333984375 L 21.246810913085938,7.188812255859375 L 21.001449584960938,7.6156768798828125 L 20.626968383789062,7.8556671142578125 L 20.267562866210938,7.808929443359375 L 19.955123901367188,7.615234375 L 19.656097412109375,7.364044189453125 L 19.357070922851562,7.11285400390625 L 19.128463745117188,6.8600616455078125 L 19.286651611328125,6.6791534423828125 L 19.45660400390625,6.4950408935546875 L 19.628219604492188,6.2342681884765625 L 19.778030395507812,5.914398193359375 M 20.967605590820312,9.953582763671875 L 20.967605590820312,9.953582763671875 L 21.030227661132812,10.222335815429688 L 21.17333984375,10.494277954101562 L 21.37347412109375,10.812530517578125 L 21.640670776367188,11.13238525390625 L 21.8843994140625,11.5145263671875 L 21.806732177734375,11.955764770507812 L 21.566390991210938,12.398605346679688 L 21.176803588867188,12.793533325195312 L 20.768783569335938,13.127777099609375 L 20.359085083007812,13.335830688476562 L 19.92254638671875,13.16290283203125 L 19.487686157226562,12.852615356445312 L 19.176910400390625,12.420928955078125 L 18.871185302734375,11.986068725585938 L 18.687881469726562,11.4873046875 L 18.985275268554688,11.03326416015625 L 19.317886352539062,10.611175537109375 L 19.653839111328125,10.193878173828125 L 20.008255004882812,9.813323974609375 L 20.364349365234375,9.834503173828125 L 20.707015991210938,9.962692260742188 L 21.0496826171875,10.09088134765625 L 21.392349243164062,10.219070434570312 M 19.855331420898438,10.592453002929688 L 19.855331420898438,10.592453002929688 L 19.983352661132812,10.69189453125 L 20.129806518554688,10.791336059570312 L 20.251129150390625,10.929107666015625 L 20.176803588867188,11.127578735351562 L 19.792251586914062,11.324447631835938 L 19.407699584960938,11.505355834960938 L 19.021469116210938,11.635147094726562 L 19.021469116210938,11.468597412109375 L 19.117630004882812,11.292465209960938 L 19.193649291992188,11.208984375 L 19.269668579101562,11.125503540039062 L 19.345687866210938,11.042022705078125 L 19.421707153320312,10.958541870117188 L 19.482650756835938,10.87506103515625 L 19.543594360351562,10.791580200195312 L 19.599502563476562,10.703292846679688 L 19.652053833007812,10.611831665039062 L 19.709640502929688,10.526748657226562 M 20.368301391601562,6.84185791015625 L 20.368301391601562,6.84185791015625 L 20.395706176757812,6.600250244140625 L 20.316360473632812,6.411346435546875 L 20.143112182617188,6.335845947265625 L 19.911163330078125,6.4959716796875 L 19.742935180664062,6.779083251953125 L 19.6837158203125,7.0318603515625 L 19.875457763671875,7.1568756103515625 L 20.105758666992188,7.2211761474609375 L 20.347808837890625,7.0961761474609375 L 20.303680419921875,6.9488067626953125 M 18.997573852539062,9.0264892578125 L 18.997573852539062,9.0264892578125 L 18.826004028320312,8.997314453125 L 18.691329956054688,9.021697998046875 L 18.575088500976562,9.13232421875 L 18.458847045898438,9.242950439453125 L 18.344284057617188,9.355178833007812 L 18.1458740234375,9.4674072265625 L 17.944107055664062,9.568450927734375 L 17.74066162109375,9.671096801757812 L 17.535537719726562,9.772140502929688 L 17.328750610351562,9.884368896484375 L 17.118606567382812,9.987014770507812 L 16.910140991210938,9.990631103515625 L 16.736892700195312,9.90234375 L 16.565322875976562,9.775741577148438 L 16.479263305664062,9.604415893554688 L 16.51336669921875,9.433090209960938 L 16.564254760742188,9.261764526367188 L 16.616806030273438,9.106399536132812 L 16.554229736328125,9.01971435546875 L 16.439666748046875,8.93463134765625 L 16.32342529296875,8.863922119140625 M 14.080032348632812,5.55615234375 L 14.080032348632812,5.55615234375 L 14.010757446289062,5.80255126953125 L 13.715087890625,6.1192169189453125 L 13.417739868164062,6.464630126953125 L 13.120391845703125,6.834014892578125 L 12.828079223632812,7.2081756591796875 L 12.57098388671875,7.59991455078125 L 12.454742431640625,8.044357299804688 L 12.53411865234375,8.491989135742188 L 12.62188720703125,8.939620971679688 L 12.70965576171875,9.387252807617188 L 12.79742431640625,9.834884643554688 L 12.88519287109375,10.282516479492188 L 12.97296142578125,10.730148315429688 L 13.15966796875,11.176193237304688 L 13.34637451171875,11.622238159179688 L 13.538116455078125,12.068283081054688 L 13.7298583984375,12.514328002929688 L 13.809234619140625,12.976333618164062 L 13.614181518554688,13.476318359375 L 13.326889038085938,13.938323974609375 L 12.964141845703125,14.358810424804688 L 12.581268310546875,14.748947143554688 L 12.327529907226562,14.670242309570312 L 12.286758422851562,14.575576782226562 L 12.180587768554688,14.327590942382812 L 12.074417114257812,14.079605102539062 L 11.974960327148438,13.762924194335938 L 12.079498291015625,13.304107666015625 L 12.189071655273438,12.846878051757812 L 12.248336791992188,12.386459350585938 L 12.219314575195312,11.902084350585938 L 12.12152099609375,11.417709350585938 L 11.960006713867188,10.934921264648438 L 11.780044555664062,10.450546264648438 L 11.595062255859375,9.967758178710938 L 11.410079956054688,9.483383178710938 L 11.22509765625,8.999008178710938 L 11.045135498046875,8.514633178710938 L 10.955734252929688,8.027053833007812 L 10.906570434570312,7.5330963134765625 L 10.965835571289062,7.0391387939453125 L 11.115646362304688,6.5755157470703125 L 11.3660888671875,6.22210693359375 L 11.631607055664062,5.8766937255859375 L 11.897125244140625,5.531280517578125 L 12.164321899414062,5.2385711669921875 L 12.493576049804688,5.151885986328125 L 12.821151733398438,5.07000732421875 L 13.148727416992188,4.988128662109375 L 13.479660034179688,4.9046478271484375 L 13.812271118164062,5.0328369140625 L 14.143203735351562,5.2137451171875 L 14.474136352539062,5.3946533203125 L 14.71954345703125,5.6314697265625 L 14.620086669921875,5.59271240234375 L 14.4434814453125,5.577911376953125" fill="none" stroke="#000000" stroke-width="0.010977828979492187"/>
</svg>
