<?xml version="1.0" ?>
<svg baseProfile="full" height="477px" version="1.1" viewBox="1.150183624267578 1.402484649658203 17.239671813964843 13.697533142089844" width="600px" xmlns="http://www.w3.org/2000/svg" xmlns:ev="http://www.w3.org/2001/xml-events" xmlns:xlink="http://www.w3.org/1999/xlink">
	<defs/>
	<path d="M 2.592803955078125,2.5499267578125 L 2.592803955078125,2.5499267578125 L 2.9304351806640625,2.888946533203125 L 3.286529541015625,3.2663116455078125 L 3.6610565185546875,3.6436767578125 L 4.0389404296875,4.0178375244140625 L 4.4168243408203125,4.3936004638671875 L 4.794708251953125,4.76776123046875 L 5.1725921630859375,5.1419219970703125 L 5.6443939208984375,5.337188720703125 L 6.1195526123046875,5.5117034912109375 L 6.5947113037109375,5.6878204345703125 L 7.0698699951171875,5.8639373779296875 L 7.5467071533203125,6.0304718017578125 L 8.030242919921875,6.1794281005859375 L 8.513778686523438,6.329986572265625 L 9.013778686523438,6.3815155029296875 L 9.513778686523438,6.4298553466796875 L 10.013778686523438,6.4797821044921875 L 10.513778686523438,6.5297088623046875 L 11.013778686523438,6.5796356201171875 L 11.513778686523438,6.6295623779296875 L 12.013778686523438,6.6539459228515625 L 12.513778686523438,6.6056060791015625 L 13.013778686523438,6.558868408203125 L 13.513778686523438,6.5089263916015625 L 14.013778686523438,6.458984375 L 14.513778686523438,6.4090423583984375 L 15.013778686523438,6.3527069091796875 L 15.513778686523438,6.189361572265625 L 15.987258911132812,6.220123291015625 L 16.036468505859375,6.30999755859375 L 16.114166259765625,6.49090576171875 L 16.070037841796875,6.3978424072265625 L 15.994049072265625,5.9757537841796875 L 15.88787841796875,5.925811767578125 L 15.593887329101562,5.720947265625 L 15.700103759765625,5.7485198974609375 L 15.8985595703125,5.804840087890625 M 16.134490966796875,5.6742706298828125 L 16.134490966796875,5.6742706298828125 L 16.183700561523438,6.17425537109375 L 16.23291015625,6.6742401123046875 L 16.215621948242188,7.174224853515625 L 16.1966552734375,7.6742095947265625 L 16.176010131835938,8.1741943359375 L 16.006118774414062,8.572311401367188 L 16.055328369140625,8.484024047851562 L 16.196762084960938,8.261581420898438 L 16.137542724609375,8.179702758789062 L 15.898880004882812,8.011566162109375 L 15.66021728515625,7.7955169677734375 L 15.451751708984375,7.37982177734375 L 15.526107788085938,6.87982177734375 L 15.917404174804688,6.515228271484375 L 16.38751220703125,6.303955078125 M 16.156845092773438,6.827911376953125 L 16.156845092773438,6.827911376953125 L 15.720306396484375,7.14776611328125 L 15.8516845703125,7.5123443603515625 L 16.2916259765625,7.465606689453125 M 16.098922729492188,10.576904296875 L 16.098922729492188,10.576904296875 L 16.495254516601562,10.952667236328125 L 16.559539794921875,11.452651977539062 L 16.590286254882812,11.95263671875 L 16.489151000976562,12.452621459960938 L 16.389694213867188,12.952606201171875 L 16.301971435546875,13.452590942382812 L 16.352859497070312,13.95257568359375 M 16.228271484375,13.2520751953125 L 16.228271484375,13.2520751953125 L 15.793411254882812,12.943374633789062 L 15.615127563476562,12.443374633789062 L 15.692825317382812,11.943374633789062 L 16.097549438476562,11.634674072265625 L 16.507293701171875,11.324386596679688 L 16.947235107421875,11.121109008789062 M 16.326339721679688,11.875076293945312 L 16.326339721679688,11.875076293945312 L 15.886444091796875,12.202911376953125 L 15.928939819335938,12.702896118164062 L 16.3990478515625,12.883804321289062 M 16.34820556640625,12.761978149414062 L 16.34820556640625,12.761978149414062 L 16.065948486328125,12.322311401367188 L 15.778656005859375,11.882644653320312 L 15.744583129882812,11.382644653320312 L 15.820602416992188,10.882644653320312 L 15.75970458984375,10.382644653320312 L 15.583099365234375,9.893478393554688 L 15.284072875976562,9.476181030273438 L 15.223175048828125,9.395889282226562 L 14.875518798828125,9.039291381835938 L 14.823013305664062,8.947830200195312 L 14.49212646484375,8.540115356445312 L 13.992141723632812,8.448654174804688 L 14.101715087890625,8.471435546875 L 14.43096923828125,8.476638793945312 L 14.480178833007812,8.385177612304688 L 14.589752197265625,8.196273803710938" fill="none" stroke="#000000" stroke-width="0.01435443115234375"/>
</svg>
