<?xml version="1.0" ?>
<svg baseProfile="full" height="600px" version="1.1" viewBox="3.1113948974609373 3.2890743408203127 6.292285888671875 7.492468994140625" width="504px" xmlns="http://www.w3.org/2000/svg" xmlns:ev="http://www.w3.org/2001/xml-events" xmlns:xlink="http://www.w3.org/1999/xlink">
	<defs/>
	<path d="M 4.4872589111328125,3.916046142578125 L 4.4872589111328125,3.916046142578125 L 4.8399810791015625,4.334930419921875 L 5.184326171875,4.76019287109375 L 5.552154541015625,5.1615142822265625 L 5.377227783203125,5.649078369140625 L 4.9775848388671875,5.9801177978515625 L 4.47760009765625,5.9801177978515625 L 3.9776153564453125,5.840728759765625 L 3.6383514404296875,5.4266204833984375 L 3.650665283203125,4.9266204833984375 L 3.8256378173828125,4.4266204833984375 L 4.2286834716796875,4.11474609375 M 7.5793304443359375,6.0522308349609375 L 7.5793304443359375,6.0522308349609375 L 7.8767242431640625,6.002288818359375 L 8.376724243164062,6.0154876708984375 L 8.876724243164062,6.1261138916015625 L 8.705154418945312,6.52264404296875 L 8.205169677734375,6.537445068359375 L 7.7051849365234375,6.4108428955078125 L 7.43634033203125,6.0510406494140625 M 7.8035888671875,8.34124755859375 L 7.8035888671875,8.34124755859375 L 7.8494415283203125,8.520553588867188 L 7.8734893798828125,9.0177001953125 L 7.779052734375,9.514846801757812 L 7.5034942626953125,9.962478637695312 L 7.006591796875,10.154571533203125 L 6.886993408203125,9.654571533203125 L 6.942901611328125,9.154571533203125 L 7.1732025146484375,8.659011840820312 L 7.6248779296875,8.3902587890625" fill="none" stroke="#000000" stroke-width="0.006238525390625"/>
</svg>
