<?xml version="1.0" ?>
<svg baseProfile="full" height="401px" version="1.1" viewBox="-1.4120000000000004 -0.6120000000000001 28.824 19.224" width="600px" xmlns="http://www.w3.org/2000/svg" xmlns:ev="http://www.w3.org/2001/xml-events" xmlns:xlink="http://www.w3.org/1999/xlink">
	<defs/>
	<path d="M 1.0,1.1112060546875 L 1.0,1.1112060546875 L 1.0,1.6111907958984375 L 1.0,2.084625244140625 L 1.0,2.5563812255859375 L 1.0,3.02813720703125 L 1.0,3.4998931884765625 L 1.0,3.971649169921875 L 1.0,4.4434051513671875 L 1.0,4.8933563232421875 L 1.0,5.3449859619140625 L 1.0,5.7966156005859375 L 1.0,6.2482452392578125 L 1.0,6.6998748779296875 L 1.0,7.1515045166015625 L 1.0,7.6031341552734375 L 1.0,8.053085327148438 L 1.0,8.503036499023438 L 1.0,8.952987670898438 L 1.0,9.402938842773438 L 1.0,9.852890014648438 L 1.0,10.302841186523438 L 1.0,10.752792358398438 L 1.0,11.202743530273438 L 1.0,11.652694702148438 L 1.0,12.102645874023438 L 1.0,12.552597045898438 L 1.0,13.002548217773438 L 1.0,13.452499389648438 L 1.0,13.904129028320312 L 1.0,14.355758666992188 L 1.0,14.807388305664062 L 1.0,15.259017944335938 L 1.0,15.708969116210938 L 1.0,16.158920288085938 L 1.0,16.608871459960938 L 1.0,17.0 L 1.0515289306640625,17.0 L 1.33624267578125,17.0 L 1.6209564208984375,17.0 L 1.905670166015625,17.0 L 2.1903839111328125,17.0 L 2.4671173095703125,17.0 L 2.7438507080078125,17.0 L 3.01898193359375,17.0 L 3.2941131591796875,17.0 L 3.569244384765625,17.0 L 3.8443756103515625,17.0 L 4.117919921875,17.0 L 4.3914642333984375,17.0 L 4.665008544921875,17.0 L 4.9401397705078125,17.0 L 5.21527099609375,17.0 L 5.4904022216796875,17.0 L 5.763946533203125,17.0 L 6.0390777587890625,17.0 L 6.314208984375,17.0 L 6.5893402099609375,17.0 L 6.9251708984375,17.0 L 7.3232879638671875,17.0 L 7.767730712890625,17.0 L 8.216949462890625,17.0 L 8.666168212890625,17.0 L 9.115386962890625,17.0 L 9.566207885742188,17.0 L 10.01702880859375,17.0 L 10.467849731445312,17.0 L 10.917068481445312,17.0 L 11.366287231445312,17.0 L 11.815505981445312,17.0 L 12.264724731445312,17.0 L 12.713943481445312,17.0 L 13.163162231445312,17.0 L 13.612380981445312,17.0 L 14.063201904296875,17.0 L 14.514022827148438,17.0 L 14.96484375,17.0 L 15.415664672851562,17.0 L 15.866485595703125,17.0 L 16.317306518554688,17.0 L 16.76812744140625,17.0 L 17.218948364257812,17.0 L 17.668167114257812,17.0 L 18.117385864257812,17.0 L 18.566604614257812,17.0 L 19.015823364257812,17.0 L 19.465042114257812,17.0 L 19.915863037109375,17.0 L 20.366683959960938,17.0 L 20.8175048828125,17.0 L 21.268325805664062,17.0 L 21.719146728515625,17.0 L 22.169967651367188,17.0 L 22.62078857421875,17.0 L 23.071609497070312,17.0 L 23.522430419921875,17.0 L 23.973251342773438,17.0 L 24.424072265625,17.0 L 24.873291015625,17.0 L 25.0,17.0 L 25.0,16.903839111328125 L 25.0,16.561172485351562 L 25.0,16.086013793945312 L 25.0,15.610855102539062 L 25.0,15.135696411132812 L 25.0,14.660537719726562 L 25.0,14.183700561523438 L 25.0,13.706863403320312 L 25.0,13.230026245117188 L 25.0,12.753189086914062 L 25.0,12.2830810546875 L 25.0,11.80792236328125 L 25.0,11.332763671875 L 25.0,10.85760498046875 L 25.0,10.3824462890625 L 25.0,9.90728759765625 L 25.0,9.43212890625 L 25.0,8.955291748046875 L 25.0,8.480133056640625 L 25.0,8.0032958984375 L 25.0,7.526458740234375 L 25.0,7.04962158203125 L 25.0,6.576141357421875 L 25.0,6.0976409912109375 L 25.0,5.619140625 L 25.0,5.142303466796875 L 25.0,4.667144775390625 L 25.0,4.191986083984375 L 25.0,3.716827392578125 L 25.0,3.241668701171875 L 25.0,2.766510009765625 L 25.0,2.291351318359375 L 25.0,1.816192626953125 L 25.0,1.341033935546875 L 25.0,1.0 L 24.88775634765625,1.0 L 24.38775634765625,1.0 L 23.88775634765625,1.0 L 23.38775634765625,1.0 L 22.88775634765625,1.0 L 22.38775634765625,1.0 L 21.88775634765625,1.0 L 21.38775634765625,1.0 L 20.88775634765625,1.0 L 20.38775634765625,1.0 L 19.88775634765625,1.0 L 19.38775634765625,1.0 L 18.88775634765625,1.0 L 18.38775634765625,1.0 L 17.88775634765625,1.0 L 17.38775634765625,1.0 L 16.88775634765625,1.0 L 16.38775634765625,1.0 L 15.88775634765625,1.0 L 15.38775634765625,1.0 L 14.88775634765625,1.0 L 14.38775634765625,1.0 L 13.88775634765625,1.0 L 13.38775634765625,1.0 L 12.88775634765625,1.0 L 12.38775634765625,1.0 L 11.88775634765625,1.0 L 11.38775634765625,1.0 L 10.88775634765625,1.0 L 10.38775634765625,1.0 L 9.88775634765625,1.0 L 9.38775634765625,1.0 L 8.88775634765625,1.0 L 8.38775634765625,1.0 L 7.88775634765625,1.0 L 7.38775634765625,1.0 L 6.88775634765625,1.0 L 6.38775634765625,1.0 L 5.88775634765625,1.0 L 5.38775634765625,1.0 L 4.88775634765625,1.0 L 4.38775634765625,1.0 L 3.88775634765625,1.0 L 3.38775634765625,1.0 L 2.88775634765625,1.0 L 2.38775634765625,1.0 L 1.88775634765625,1.0 L 1.38775634765625,1.0 L 1.0,1.0" fill="none" stroke="#000000" stroke-width="0.024"/>
</svg>
