<?xml version="1.0" ?>
<svg baseProfile="full" height="355px" version="1.1" viewBox="12.55543148803711 7.966562774658203 6.261634582519531 3.6952466430664064" width="600px" xmlns="http://www.w3.org/2000/svg" xmlns:ev="http://www.w3.org/2001/xml-events" xmlns:xlink="http://www.w3.org/1999/xlink">
	<defs/>
	<path d="M 16.74603271484375,9.671142578125 L 16.74603271484375,9.671142578125 L 16.577804565429688,9.490234375 L 16.409576416015625,9.309326171875 L 16.21954345703125,9.230621337890625 L 15.979202270507812,9.227005004882812 L 15.735519409179688,9.193023681640625 L 15.496856689453125,9.106338500976562 L 15.264907836914062,8.992507934570312 L 15.053085327148438,8.862701416015625 L 14.874801635742188,8.712127685546875 L 14.706573486328125,8.567947387695312 L 14.472946166992188,8.505218505859375 L 14.183990478515625,8.679733276367188 L 13.895034790039062,8.854248046875 L 13.679855346679688,9.08306884765625 L 13.561935424804688,9.347030639648438 L 13.606109619140625,9.646133422851562 L 13.710647583007812,9.934051513671875 L 13.813507080078125,10.221969604492188 L 13.916366577148438,10.5098876953125 L 14.014205932617188,10.79620361328125 L 14.11370849609375,11.069747924804688 L 14.245086669921875,11.29058837890625 L 14.4468994140625,11.351699829101562 L 14.652069091796875,11.296951293945312 L 14.85723876953125,11.187911987304688 L 15.059051513671875,11.082061767578125 L 15.2608642578125,11.100051879882812 L 15.462677001953125,11.12603759765625 L 15.66448974609375,11.152023315429688 L 15.866302490234375,11.137222290039062 L 16.068115234375,11.09686279296875 L 16.269927978515625,11.056503295898438 L 16.473419189453125,11.016143798828125 L 16.67523193359375,10.894317626953125 L 16.877044677734375,10.77569580078125 L 17.078857421875,10.70977783203125 L 17.280670166015625,10.64385986328125 L 17.48248291015625,10.57794189453125 L 17.68597412109375,10.51202392578125 L 17.88946533203125,10.44610595703125 L 18.091278076171875,10.38018798828125 L 18.2930908203125,10.312667846679688 M 14.242156982421875,8.537460327148438 L 14.242156982421875,8.537460327148438 L 14.0655517578125,8.35174560546875 L 13.92919921875,8.358551025390625 L 13.826385498046875,8.27667236328125 L 13.875595092773438,8.374526977539062 L 13.926483154296875,8.756668090820312 M 13.816513061523438,10.576004028320312 L 13.816513061523438,10.576004028320312 L 13.738845825195312,10.996490478515625 L 13.848419189453125,11.028854370117188 L 13.947921752929688,11.043655395507812 L 14.09271240234375,11.104766845703125 M 13.98150634765625,11.091567993164062 L 13.98150634765625,11.091567993164062 L 13.581863403320312,10.73016357421875 L 13.333145141601562,10.268142700195312 L 13.07940673828125,9.804519653320312" fill="none" stroke="#000000" stroke-width="0.00521368408203125"/>
</svg>
