<?xml version="1.0" ?>
<svg baseProfile="full" height="547px" version="1.1" viewBox="10.425104301452636 7.044217460632324 7.017482437133789 6.3941548004150395" width="600px" xmlns="http://www.w3.org/2000/svg" xmlns:ev="http://www.w3.org/2001/xml-events" xmlns:xlink="http://www.w3.org/1999/xlink">
	<defs/>
	<path d="M 13.140304565429688,11.028167724609375 L 13.140304565429688,11.028167724609375 L 13.288436889648438,11.528152465820312 L 13.782028198242188,11.635589599609375 L 14.282028198242188,11.666351318359375 L 14.782028198242188,11.57806396484375 L 15.072708129882812,11.162368774414062 L 15.168869018554688,10.669998168945312 L 15.259994506835938,10.179229736328125 L 15.29913330078125,9.685272216796875 L 15.224807739257812,9.189712524414062 L 14.984466552734375,8.735671997070312 L 14.739105224609375,8.281631469726562 L 14.29083251953125,8.030441284179688 L 13.790847778320312,8.236892700195312 L 13.384490966796875,8.611053466796875 L 13.0804443359375,9.057098388671875 L 12.843460083007812,9.512725830078125 L 12.759078979492188,10.009872436523438 L 12.689804077148438,10.50701904296875 L 12.640640258789062,11.007003784179688 L 12.969894409179688,11.453048706054688 M 12.63238525390625,12.212188720703125 L 12.63238525390625,12.212188720703125 L 12.693328857421875,12.712173461914062 L 13.171829223632812,12.869125366210938 L 13.671829223632812,12.903091430664062 L 14.111770629882812,12.61676025390625 L 14.0877685546875,12.11676025390625 M 13.14892578125,8.432388305664062 L 13.14892578125,8.432388305664062 L 13.3389892578125,7.9323883056640625 L 13.8040771484375,8.178787231445312 L 13.68951416015625,8.67877197265625 L 13.574951171875,8.61285400390625 L 13.1820068359375,8.307357788085938 M 15.436599731445312,9.20458984375 L 15.436599731445312,9.20458984375 L 15.901687622070312,9.39508056640625 L 16.378524780273438,9.563217163085938 L 16.855361938476562,9.731353759765625 M 15.661544799804688,10.38861083984375 L 15.661544799804688,10.38861083984375 L 16.161544799804688,10.43853759765625 L 16.661544799804688,10.345474243164062 M 16.567108154296875,10.289138793945312 L 16.567108154296875,10.289138793945312 L 16.093673706054688,10.082672119140625 L 15.59368896484375,9.892181396484375 L 15.093704223632812,9.882156372070312 L 14.665542602539062,9.575057983398438 L 14.234039306640625,9.2823486328125 L 13.734054565429688,9.12060546875 L 13.240509033203125,8.947677612304688 L 12.746963500976562,8.774749755859375 L 12.246978759765625,8.678482055664062 L 11.823867797851562,8.377792358398438 L 11.446029663085938,8.017990112304688 L 11.338180541992188,7.9329071044921875 L 11.0123291015625,7.579498291015625" fill="none" stroke="#000000" stroke-width="0.005843032836914063"/>
</svg>
