<?xml version="1.0" ?>
<svg baseProfile="full" height="458px" version="1.1" viewBox="10.876456184387207 8.59312183380127 5.243654403686524 3.9948018646240238" width="600px" xmlns="http://www.w3.org/2000/svg" xmlns:ev="http://www.w3.org/2001/xml-events" xmlns:xlink="http://www.w3.org/1999/xlink">
	<defs/>
	<path d="M 12.17840576171875,10.820068359375 L 12.17840576171875,10.820068359375 L 12.045394897460938,11.167724609375 L 12.125686645507812,11.2470703125 L 12.212356567382812,11.32305908203125 L 12.275070190429688,11.404083251953125 L 12.585342407226562,11.780242919921875 L 12.67840576171875,11.866302490234375 L 13.065353393554688,12.193832397460938 L 13.015411376953125,12.101028442382812 L 12.955886840820312,11.820404052734375 L 12.854827880859375,11.819839477539062 L 12.354827880859375,11.760574340820312 L 12.258560180664062,11.823150634765625 L 12.04571533203125,11.994720458984375 L 11.8951416015625,11.994720458984375 L 11.818038940429688,11.91534423828125 L 11.681854248046875,11.720260620117188 L 11.59039306640625,11.659317016601562 L 11.31524658203125,11.328384399414062 L 11.339630126953125,11.22216796875 L 11.590805053710938,11.102523803710938 L 11.65191650390625,11.01641845703125 L 12.069198608398438,10.809585571289062 L 12.014450073242188,10.705047607421875 L 11.748886108398438,10.389205932617188 L 11.662200927734375,10.304779052734375 L 11.473297119140625,9.968826293945312 L 11.558364868164062,9.909561157226562 L 11.910171508789062,9.850296020507812 L 11.873001098632812,9.739059448242188 L 11.757568359375,9.322601318359375 L 11.87457275390625,9.33319091796875 L 12.358932495117188,9.430984497070312 L 12.48394775390625,9.430419921875 L 12.85333251953125,9.325881958007812 L 12.876113891601562,9.221343994140625 L 12.973968505859375,9.088287353515625 L 13.071823120117188,9.055862426757812 L 13.239959716796875,9.0234375 L 13.408096313476562,8.991012573242188 L 13.57623291015625,8.96026611328125 L 13.755538940429688,8.927841186523438 L 13.909286499023438,8.956863403320312 L 13.85614013671875,9.044586181640625 L 13.787033081054688,9.174240112304688 L 13.717926025390625,9.30389404296875 L 13.648818969726562,9.438568115234375 L 13.541366577148438,9.574920654296875 L 13.41156005859375,9.736434936523438 L 13.447128295898438,10.027069091796875 L 13.69830322265625,10.253982543945312 L 14.086837768554688,10.407119750976562 L 14.475372314453125,10.558578491210938 L 14.863906860351562,10.710037231445312 L 15.25244140625,10.861495971679688 L 15.580276489257812,11.012954711914062 L 15.681320190429688,11.097335815429688 L 15.498809814453125,11.051483154296875 L 15.316299438476562,11.005630493164062 L 15.1337890625,11.032989501953125 L 14.917739868164062,11.263259887695312 L 14.818283081054688,11.280548095703125 L 14.539932250976562,11.29449462890625 L 14.491592407226562,11.20672607421875 L 14.43206787109375,11.061935424804688 L 14.34698486328125,11.006027221679688 L 14.1197509765625,10.852859497070312 L 14.03466796875,10.793594360351562 L 13.908065795898438,10.789657592773438 L 13.634506225585938,10.789657592773438 L 13.5142822265625,10.7918701171875 L 13.258285522460938,10.794082641601562 L 13.149246215820312,10.824783325195312 L 12.942779541015625,10.996353149414062 L 13.024658203125,11.16290283203125 L 13.309371948242188,11.564224243164062 L 13.400833129882812,11.633499145507812 L 13.826095581054688,11.964385986328125 L 13.9447021484375,12.02862548828125 L 14.444686889648438,12.195175170898438 L 14.342041015625,12.194610595703125 L 13.842041015625,12.019638061523438 L 13.713836669921875,11.992233276367188 L 13.213836669921875,12.022933959960938 L 12.945083618164062,12.253204345703125 L 13.004608154296875,12.15704345703125 L 13.115234375,11.800949096679688 M 13.216278076171875,11.741683959960938 L 13.216278076171875,11.741683959960938 L 13.612808227539062,11.420806884765625 L 13.712249755859375,11.393402099609375 L 14.212234497070312,11.36767578125 L 14.71221923828125,11.341949462890625 L 15.212203979492188,11.49676513671875 L 15.659835815429688,11.772323608398438" fill="none" stroke="#000000" stroke-width="0.004366073608398437"/>
</svg>
