<?xml version="1.0" ?>
<svg baseProfile="full" height="600px" version="1.1" viewBox="12.775103485107422 7.954809295654297 3.8602544555664062 4.911975646972657" width="472px" xmlns="http://www.w3.org/2000/svg" xmlns:ev="http://www.w3.org/2001/xml-events" xmlns:xlink="http://www.w3.org/1999/xlink">
	<defs/>
	<path d="M 14.25567626953125,9.19012451171875 L 14.25567626953125,9.19012451171875 L 14.7113037109375,9.34326171875 L 14.809158325195312,9.367263793945312 L 15.240829467773438,9.538833618164062 L 15.265213012695312,9.648361206054688 L 15.347091674804688,9.95745849609375 L 15.446533203125,10.030105590820312 L 15.847854614257812,10.26708984375 L 15.912155151367188,10.344757080078125 L 16.164932250976562,10.647125244140625 L 16.226043701171875,10.751617431640625 L 16.226043701171875,10.86785888671875 L 16.293548583984375,11.210479736328125 L 16.311538696289062,11.536331176757812 L 16.311965942382812,11.7733154296875 L 16.26202392578125,11.88787841796875 L 16.199295043945312,12.217086791992188 L 15.992828369140625,12.45574951171875 L 15.8853759765625,12.45574951171875 L 15.578277587890625,12.394805908203125 L 15.49639892578125,12.33721923828125 L 15.379379272460938,12.054916381835938 L 15.279922485351562,12.032546997070312 L 15.083038330078125,11.793838500976562 L 14.954833984375,11.973800659179688 L 14.872955322265625,12.053146362304688 L 14.73516845703125,12.248199462890625 L 14.63092041015625,12.217453002929688 L 14.533050537109375,12.168243408203125 L 14.439987182617188,12.124069213867188 L 14.166427612304688,11.791458129882812 L 14.058975219726562,11.7523193359375 L 13.740707397460938,11.480087280273438 L 13.614105224609375,11.442626953125 L 13.33575439453125,11.385040283203125 L 13.135665893554688,11.0557861328125 L 13.098495483398438,10.944549560546875 L 13.215499877929688,10.677352905273438 L 13.200698852539062,10.567779541015625 L 13.455078125,10.119461059570312 L 13.373199462890625,10.03839111328125 L 13.2449951171875,9.559890747070312 L 13.174285888671875,9.480514526367188 L 13.106765747070312,8.9986572265625 L 13.106765747070312,8.892440795898438 L 13.185455322265625,8.440765380859375 L 13.291290283203125,8.41839599609375 L 13.791275024414062,8.3658447265625 L 13.84759521484375,8.455245971679688 L 14.20098876953125,8.863265991210938 L 14.154251098632812,8.987884521484375 L 14.0196533203125,9.256729125976562" fill="none" stroke="#000000" stroke-width="0.00408990478515625"/>
</svg>
