<?xml version="1.0" ?>
<svg baseProfile="full" height="600px" version="1.1" viewBox="9.892500846862793 8.60701653289795 3.3353901519775393 3.7994709625244143" width="527px" xmlns="http://www.w3.org/2000/svg" xmlns:ev="http://www.w3.org/2001/xml-events" xmlns:xlink="http://www.w3.org/1999/xlink">
	<defs/>
	<path d="M 12.948623657226562,10.593246459960938 L 12.948623657226562,10.593246459960938 L 12.869277954101562,10.410736083984375 L 12.77484130859375,10.228225708007812 L 12.655242919921875,10.10479736328125 L 12.515533447265625,9.990966796875 L 12.3741455078125,9.864364624023438 L 12.229400634765625,9.699417114257812 L 12.104782104492188,9.51690673828125 L 11.978485107421875,9.334396362304688 L 11.8404541015625,9.17425537109375 L 11.682296752929688,9.068405151367188 L 11.514068603515625,8.989700317382812 L 11.34417724609375,8.938156127929688 L 11.170928955078125,8.924957275390625 L 10.999359130859375,8.942947387695312 L 10.849594116210938,9.013656616210938 L 10.711563110351562,9.109909057617188 L 10.583587646484375,9.21893310546875 L 10.469024658203125,9.34552001953125 L 10.354461669921875,9.47210693359375 L 10.268402099609375,9.621063232421875 L 10.1873779296875,9.789199829101562 L 10.171768188476562,9.976486206054688 L 10.171768188476562,10.210098266601562 L 10.227676391601562,10.45489501953125 L 10.320480346679688,10.698089599609375 L 10.463592529296875,10.942886352539062 L 10.640243530273438,11.166915893554688 M 11.157958984375,10.82904052734375 L 11.157958984375,10.82904052734375 L 11.304412841796875,10.914108276367188 L 11.397216796875,11.144515991210938 L 11.35308837890625,11.43243408203125 L 11.158035278320312,11.723556518554688 L 10.8975830078125,11.982711791992188 L 10.625381469726562,12.088546752929688 L 10.37164306640625,11.953948974609375" fill="none" stroke="#000000" stroke-width="0.0031635894775390626"/>
</svg>
