<?xml version="1.0" ?>
<svg baseProfile="full" height="600px" version="1.1" viewBox="11.60186769104004 6.554739395141602 4.694763153076172 7.1396972351074215" width="395px" xmlns="http://www.w3.org/2000/svg" xmlns:ev="http://www.w3.org/2001/xml-events" xmlns:xlink="http://www.w3.org/1999/xlink">
	<defs/>
	<path d="M 14.736785888671875,8.053268432617188 L 14.736785888671875,8.053268432617188 L 14.81280517578125,7.5532684326171875 L 14.312820434570312,7.3691558837890625 L 13.817596435546875,7.6059722900390625 L 13.5889892578125,8.095138549804688 L 13.997055053710938,8.306396484375 M 14.037918090820312,8.317138671875 L 14.037918090820312,8.317138671875 L 13.665115356445312,8.71685791015625 L 13.4298095703125,9.204421997070312 L 13.52093505859375,9.70440673828125 L 13.652313232421875,10.204391479492188 L 13.79876708984375,10.704376220703125 L 14.138076782226562,11.123260498046875 M 13.816207885742188,10.8944091796875 L 13.816207885742188,10.8944091796875 L 13.632904052734375,11.391555786132812 L 14.00408935546875,11.770523071289062 L 14.50408935546875,11.723785400390625 L 14.769607543945312,11.255386352539062 M 14.931838989257812,9.342544555664062 L 14.931838989257812,9.342544555664062 L 15.031341552734375,9.839691162109375 L 14.913421630859375,9.90240478515625 M 15.100204467773438,9.703903198242188 L 15.100204467773438,9.703903198242188 L 15.491500854492188,9.734664916992188 L 15.902923583984375,9.768630981445312 M 12.767913818359375,7.152191162109375 L 12.767913818359375,7.152191162109375 L 12.956298828125,7.392181396484375 L 12.8702392578125,7.4916229248046875 L 12.58294677734375,7.9392547607421875 L 12.334228515625,8.422027587890625 L 12.135818481445312,8.915969848632812 L 12.017898559570312,9.41595458984375 L 11.995574951171875,9.915939331054688 L 12.041427612304688,10.415924072265625 L 12.1761474609375,10.915908813476562 L 12.40142822265625,11.413055419921875 L 12.660247802734375,11.89263916015625 L 12.920745849609375,12.3690185546875 L 13.184600830078125,12.802276611328125 M 13.1136474609375,12.901718139648438 L 13.1136474609375,12.901718139648438 L 12.883377075195312,13.09698486328125" fill="none" stroke="#000000" stroke-width="0.005944793701171875"/>
</svg>
